<svg width="768" height="100" viewBox="0 0 768 100" fill="none" xmlns="http://www.w3.org/2000/svg">
<circle cx="53.9998" cy="50" r="50" fill="#3DDC91" fill-opacity="0.25"/>
<path d="M25.6311 56H21.8641V44.3636H25.7505C26.8906 44.3636 27.8698 44.5966 28.688 45.0625C29.5061 45.5246 30.133 46.1894 30.5686 47.0568C31.008 47.9205 31.2277 48.9564 31.2277 50.1648C31.2277 51.3769 31.0061 52.4186 30.563 53.2898C30.1236 54.161 29.4872 54.8314 28.6539 55.3011C27.8205 55.767 26.813 56 25.6311 56ZM23.6198 54.4659H25.5346C26.4209 54.4659 27.1577 54.2992 27.7448 53.9659C28.3319 53.6288 28.7713 53.142 29.063 52.5057C29.3546 51.8655 29.5005 51.0852 29.5005 50.1648C29.5005 49.2519 29.3546 48.4773 29.063 47.8409C28.7751 47.2045 28.3452 46.7216 27.7732 46.392C27.2012 46.0625 26.491 45.8977 25.6425 45.8977H23.6198V54.4659ZM33.2746 56V47.2727H34.9735V56H33.2746ZM34.1326 45.9261C33.8371 45.9261 33.5833 45.8277 33.3712 45.6307C33.1629 45.4299 33.0587 45.1913 33.0587 44.9148C33.0587 44.6345 33.1629 44.3958 33.3712 44.1989C33.5833 43.9981 33.8371 43.8977 34.1326 43.8977C34.428 43.8977 34.6799 43.9981 34.8883 44.1989C35.1004 44.3958 35.2064 44.6345 35.2064 44.9148C35.2064 45.1913 35.1004 45.4299 34.8883 45.6307C34.6799 45.8277 34.428 45.9261 34.1326 45.9261ZM43.7988 49.4034L42.259 49.6761C42.1946 49.4792 42.0923 49.2917 41.9522 49.1136C41.8158 48.9356 41.6302 48.7898 41.3954 48.6761C41.1605 48.5625 40.8669 48.5057 40.5147 48.5057C40.0336 48.5057 39.6321 48.6136 39.3101 48.8295C38.9882 49.0417 38.8272 49.3163 38.8272 49.6534C38.8272 49.9451 38.9351 50.1799 39.151 50.358C39.3669 50.536 39.7154 50.6818 40.1965 50.7955L41.5829 51.1136C42.3859 51.2992 42.9844 51.5852 43.3783 51.9716C43.7722 52.358 43.9692 52.8598 43.9692 53.4773C43.9692 54 43.8177 54.4659 43.5147 54.875C43.2154 55.2803 42.7969 55.5985 42.259 55.8295C41.7249 56.0606 41.1056 56.1761 40.401 56.1761C39.4238 56.1761 38.6264 55.9678 38.009 55.5511C37.3916 55.1307 37.0128 54.5341 36.8726 53.7614L38.5147 53.5114C38.6169 53.9394 38.8272 54.2633 39.1454 54.483C39.4635 54.6989 39.8783 54.8068 40.3897 54.8068C40.9465 54.8068 41.3916 54.6913 41.7249 54.4602C42.0582 54.2254 42.2249 53.9394 42.2249 53.6023C42.2249 53.3295 42.1226 53.1004 41.9181 52.9148C41.7173 52.7292 41.4086 52.589 40.9919 52.4943L39.5147 52.1705C38.7003 51.9848 38.098 51.6894 37.7079 51.2841C37.3215 50.8788 37.1283 50.3655 37.1283 49.7443C37.1283 49.2292 37.2722 48.7784 37.5601 48.392C37.848 48.0057 38.2457 47.7045 38.7533 47.4886C39.2609 47.2689 39.8423 47.1591 40.4976 47.1591C41.4408 47.1591 42.1832 47.3636 42.7249 47.7727C43.2666 48.178 43.6245 48.7216 43.7988 49.4034ZM49.5133 56.1761C48.6686 56.1761 47.9413 55.9848 47.3314 55.6023C46.7254 55.2159 46.2595 54.6837 45.9337 54.0057C45.6079 53.3277 45.4451 52.5511 45.4451 51.6761C45.4451 50.7898 45.6117 50.0076 45.9451 49.3295C46.2784 48.6477 46.7481 48.1155 47.3542 47.733C47.9602 47.3504 48.6742 47.1591 49.4962 47.1591C50.1591 47.1591 50.75 47.2822 51.2689 47.5284C51.7879 47.7708 52.2064 48.1117 52.5246 48.5511C52.8466 48.9905 53.0379 49.5038 53.0985 50.0909H51.4451C51.3542 49.6818 51.1458 49.3295 50.8201 49.0341C50.4981 48.7386 50.0663 48.5909 49.5246 48.5909C49.0511 48.5909 48.6364 48.7159 48.2803 48.9659C47.928 49.2121 47.6534 49.5644 47.4564 50.0227C47.2595 50.4773 47.161 51.0152 47.161 51.6364C47.161 52.2727 47.2576 52.822 47.4508 53.2841C47.6439 53.7462 47.9167 54.1042 48.2689 54.358C48.625 54.6117 49.0436 54.7386 49.5246 54.7386C49.8466 54.7386 50.1383 54.6799 50.3996 54.5625C50.6648 54.4413 50.8864 54.2689 51.0644 54.0455C51.2462 53.822 51.3731 53.553 51.4451 53.2386H53.0985C53.0379 53.803 52.8542 54.3068 52.5473 54.75C52.2405 55.1932 51.8295 55.5417 51.3144 55.7955C50.803 56.0492 50.2026 56.1761 49.5133 56.1761ZM58.5914 56.1761C57.7732 56.1761 57.0592 55.9886 56.4493 55.6136C55.8395 55.2386 55.366 54.714 55.0289 54.0398C54.6918 53.3655 54.5232 52.5777 54.5232 51.6761C54.5232 50.7708 54.6918 49.9792 55.0289 49.3011C55.366 48.6231 55.8395 48.0966 56.4493 47.7216C57.0592 47.3466 57.7732 47.1591 58.5914 47.1591C59.4096 47.1591 60.1236 47.3466 60.7334 47.7216C61.3433 48.0966 61.8168 48.6231 62.1539 49.3011C62.491 49.9792 62.6596 50.7708 62.6596 51.6761C62.6596 52.5777 62.491 53.3655 62.1539 54.0398C61.8168 54.714 61.3433 55.2386 60.7334 55.6136C60.1236 55.9886 59.4096 56.1761 58.5914 56.1761ZM58.5971 54.75C59.1274 54.75 59.5668 54.6098 59.9152 54.3295C60.2637 54.0492 60.5213 53.6761 60.688 53.2102C60.8584 52.7443 60.9436 52.2311 60.9436 51.6705C60.9436 51.1136 60.8584 50.6023 60.688 50.1364C60.5213 49.6667 60.2637 49.2898 59.9152 49.0057C59.5668 48.7216 59.1274 48.5795 58.5971 48.5795C58.063 48.5795 57.6198 48.7216 57.2675 49.0057C56.919 49.2898 56.6596 49.6667 56.4891 50.1364C56.3224 50.6023 56.2391 51.1136 56.2391 51.6705C56.2391 52.2311 56.3224 52.7443 56.4891 53.2102C56.6596 53.6761 56.919 54.0492 57.2675 54.3295C57.6198 54.6098 58.063 54.75 58.5971 54.75ZM71.7249 47.2727L68.5601 56H66.7419L63.5715 47.2727H65.3954L67.6056 53.9886H67.6965L69.901 47.2727H71.7249ZM76.786 56.1761C75.9261 56.1761 75.1856 55.9924 74.5644 55.625C73.947 55.2538 73.4697 54.733 73.1326 54.0625C72.7992 53.3883 72.6326 52.5985 72.6326 51.6932C72.6326 50.7992 72.7992 50.0114 73.1326 49.3295C73.4697 48.6477 73.9394 48.1155 74.5417 47.733C75.1477 47.3504 75.8561 47.1591 76.6667 47.1591C77.1591 47.1591 77.6364 47.2405 78.0985 47.4034C78.5606 47.5663 78.9754 47.822 79.3428 48.1705C79.7102 48.5189 80 48.9716 80.2121 49.5284C80.4242 50.0814 80.5303 50.7538 80.5303 51.5455V52.1477H73.5928V50.875H78.8655C78.8655 50.428 78.7746 50.0322 78.5928 49.6875C78.411 49.339 78.1553 49.0644 77.8258 48.8636C77.5 48.6629 77.1174 48.5625 76.678 48.5625C76.2008 48.5625 75.7841 48.6799 75.428 48.9148C75.0758 49.1458 74.803 49.4489 74.6098 49.8239C74.4204 50.1951 74.3258 50.5985 74.3258 51.0341V52.0284C74.3258 52.6117 74.428 53.108 74.6326 53.517C74.8409 53.9261 75.1307 54.2386 75.5019 54.4545C75.8731 54.6667 76.3068 54.7727 76.803 54.7727C77.125 54.7727 77.4186 54.7273 77.6837 54.6364C77.9489 54.5417 78.178 54.4015 78.3712 54.2159C78.5644 54.0303 78.7121 53.8011 78.8144 53.5284L80.4223 53.8182C80.2936 54.2917 80.0625 54.7064 79.7292 55.0625C79.3996 55.4148 78.9848 55.6894 78.4848 55.8864C77.9886 56.0795 77.4223 56.1761 76.786 56.1761ZM82.4152 56V47.2727H84.0573V48.6591H84.1482C84.3073 48.1894 84.5876 47.8201 84.9891 47.5511C85.3944 47.2784 85.8527 47.142 86.3641 47.142C86.4702 47.142 86.5952 47.1458 86.7391 47.1534C86.8868 47.161 87.0024 47.1705 87.0857 47.1818V48.8068C87.0175 48.7879 86.8963 48.767 86.7221 48.7443C86.5478 48.7178 86.3736 48.7045 86.1993 48.7045C85.7978 48.7045 85.4399 48.7898 85.1255 48.9602C84.8149 49.1269 84.5686 49.3598 84.3868 49.6591C84.205 49.9545 84.1141 50.2917 84.1141 50.6705V56H82.4152Z" fill="#282D46"/>
<circle cx="186" cy="50" r="50" fill="#3DDC91" fill-opacity="0.25"/>
<path d="M166.155 56H162.388V44.3636H166.274C167.414 44.3636 168.393 44.5966 169.211 45.0625C170.03 45.5246 170.656 46.1894 171.092 47.0568C171.531 47.9205 171.751 48.9564 171.751 50.1648C171.751 51.3769 171.53 52.4186 171.086 53.2898C170.647 54.161 170.011 54.8314 169.177 55.3011C168.344 55.767 167.336 56 166.155 56ZM164.143 54.4659H166.058C166.944 54.4659 167.681 54.2992 168.268 53.9659C168.855 53.6288 169.295 53.142 169.586 52.5057C169.878 51.8655 170.024 51.0852 170.024 50.1648C170.024 49.2519 169.878 48.4773 169.586 47.8409C169.299 47.2045 168.869 46.7216 168.297 46.392C167.725 46.0625 167.014 45.8977 166.166 45.8977H164.143V54.4659ZM177.559 56.1761C176.7 56.1761 175.959 55.9924 175.338 55.625C174.72 55.2538 174.243 54.733 173.906 54.0625C173.573 53.3883 173.406 52.5985 173.406 51.6932C173.406 50.7992 173.573 50.0114 173.906 49.3295C174.243 48.6477 174.713 48.1155 175.315 47.733C175.921 47.3504 176.629 47.1591 177.44 47.1591C177.933 47.1591 178.41 47.2405 178.872 47.4034C179.334 47.5663 179.749 47.822 180.116 48.1705C180.484 48.5189 180.773 48.9716 180.986 49.5284C181.198 50.0814 181.304 50.7538 181.304 51.5455V52.1477H174.366V50.875H179.639C179.639 50.428 179.548 50.0322 179.366 49.6875C179.184 49.339 178.929 49.0644 178.599 48.8636C178.273 48.6629 177.891 48.5625 177.451 48.5625C176.974 48.5625 176.558 48.6799 176.201 48.9148C175.849 49.1458 175.576 49.4489 175.383 49.8239C175.194 50.1951 175.099 50.5985 175.099 51.0341V52.0284C175.099 52.6117 175.201 53.108 175.406 53.517C175.614 53.9261 175.904 54.2386 176.275 54.4545C176.647 54.6667 177.08 54.7727 177.576 54.7727C177.898 54.7727 178.192 54.7273 178.457 54.6364C178.722 54.5417 178.951 54.4015 179.145 54.2159C179.338 54.0303 179.486 53.8011 179.588 53.5284L181.196 53.8182C181.067 54.2917 180.836 54.7064 180.503 55.0625C180.173 55.4148 179.758 55.6894 179.258 55.8864C178.762 56.0795 178.196 56.1761 177.559 56.1761ZM187.342 47.2727V48.6364H182.41V47.2727H187.342ZM183.763 56V46.2614C183.763 45.7159 183.882 45.2633 184.12 44.9034C184.359 44.5398 184.675 44.2689 185.069 44.0909C185.463 43.9091 185.891 43.8182 186.353 43.8182C186.694 43.8182 186.986 43.8466 187.228 43.9034C187.471 43.9564 187.651 44.0057 187.768 44.0511L187.37 45.4261C187.291 45.4034 187.189 45.3769 187.064 45.3466C186.939 45.3125 186.787 45.2955 186.609 45.2955C186.196 45.2955 185.901 45.3977 185.723 45.6023C185.549 45.8068 185.461 46.1023 185.461 46.4886V56H183.763ZM189.095 56V47.2727H190.794V56H189.095ZM189.953 45.9261C189.657 45.9261 189.404 45.8277 189.192 45.6307C188.983 45.4299 188.879 45.1913 188.879 44.9148C188.879 44.6345 188.983 44.3958 189.192 44.1989C189.404 43.9981 189.657 43.8977 189.953 43.8977C190.248 43.8977 190.5 43.9981 190.709 44.1989C190.921 44.3958 191.027 44.6345 191.027 44.9148C191.027 45.1913 190.921 45.4299 190.709 45.6307C190.5 45.8277 190.248 45.9261 189.953 45.9261ZM194.778 50.8182V56H193.079V47.2727H194.71V48.6932H194.818C195.019 48.2311 195.333 47.8598 195.761 47.5795C196.193 47.2992 196.736 47.1591 197.392 47.1591C197.986 47.1591 198.507 47.2841 198.954 47.5341C199.401 47.7803 199.748 48.1477 199.994 48.6364C200.24 49.125 200.363 49.7292 200.363 50.4489V56H198.665V50.6534C198.665 50.0208 198.5 49.5265 198.17 49.1705C197.841 48.8106 197.388 48.6307 196.812 48.6307C196.418 48.6307 196.068 48.7159 195.761 48.8864C195.458 49.0568 195.218 49.3068 195.04 49.6364C194.865 49.9621 194.778 50.3561 194.778 50.8182ZM206.403 56.1761C205.543 56.1761 204.803 55.9924 204.182 55.625C203.564 55.2538 203.087 54.733 202.75 54.0625C202.416 53.3883 202.25 52.5985 202.25 51.6932C202.25 50.7992 202.416 50.0114 202.75 49.3295C203.087 48.6477 203.557 48.1155 204.159 47.733C204.765 47.3504 205.473 47.1591 206.284 47.1591C206.776 47.1591 207.254 47.2405 207.716 47.4034C208.178 47.5663 208.593 47.822 208.96 48.1705C209.327 48.5189 209.617 48.9716 209.829 49.5284C210.041 50.0814 210.147 50.7538 210.147 51.5455V52.1477H203.21V50.875H208.483C208.483 50.428 208.392 50.0322 208.21 49.6875C208.028 49.339 207.772 49.0644 207.443 48.8636C207.117 48.6629 206.735 48.5625 206.295 48.5625C205.818 48.5625 205.401 48.6799 205.045 48.9148C204.693 49.1458 204.42 49.4489 204.227 49.8239C204.038 50.1951 203.943 50.5985 203.943 51.0341V52.0284C203.943 52.6117 204.045 53.108 204.25 53.517C204.458 53.9261 204.748 54.2386 205.119 54.4545C205.49 54.6667 205.924 54.7727 206.42 54.7727C206.742 54.7727 207.036 54.7273 207.301 54.6364C207.566 54.5417 207.795 54.4015 207.988 54.2159C208.182 54.0303 208.329 53.8011 208.432 53.5284L210.04 53.8182C209.911 54.2917 209.68 54.7064 209.346 55.0625C209.017 55.4148 208.602 55.6894 208.102 55.8864C207.606 56.0795 207.04 56.1761 206.403 56.1761Z" fill="#282D46"/>
<circle cx="318" cy="50" r="50" fill="#3DDC91" fill-opacity="0.25"/>
<path d="M296.995 44.3636V56H295.239V44.3636H296.995ZM302.682 56.1705C301.978 56.1705 301.349 55.9905 300.796 55.6307C300.247 55.267 299.815 54.75 299.5 54.0795C299.19 53.4053 299.035 52.5966 299.035 51.6534C299.035 50.7102 299.192 49.9034 299.506 49.233C299.824 48.5625 300.26 48.0492 300.813 47.6932C301.366 47.3371 301.993 47.1591 302.694 47.1591C303.235 47.1591 303.671 47.25 304 47.4318C304.334 47.6098 304.591 47.8182 304.773 48.0568C304.959 48.2955 305.103 48.5057 305.205 48.6875H305.307V44.3636H307.006V56H305.347V54.642H305.205C305.103 54.8277 304.955 55.0398 304.762 55.2784C304.572 55.517 304.311 55.7254 303.978 55.9034C303.644 56.0814 303.213 56.1705 302.682 56.1705ZM303.057 54.7216C303.546 54.7216 303.959 54.5928 304.296 54.3352C304.637 54.0739 304.894 53.7121 305.069 53.25C305.247 52.7879 305.336 52.25 305.336 51.6364C305.336 51.0303 305.249 50.5 305.074 50.0455C304.9 49.5909 304.644 49.2367 304.307 48.983C303.97 48.7292 303.553 48.6023 303.057 48.6023C302.546 48.6023 302.12 48.7348 301.779 49C301.438 49.2652 301.18 49.6269 301.006 50.0852C300.836 50.5436 300.75 51.0606 300.75 51.6364C300.75 52.2197 300.838 52.7443 301.012 53.2102C301.186 53.6761 301.444 54.0455 301.785 54.3182C302.129 54.5871 302.553 54.7216 303.057 54.7216ZM313.192 56.1761C312.332 56.1761 311.592 55.9924 310.971 55.625C310.353 55.2538 309.876 54.733 309.539 54.0625C309.205 53.3883 309.039 52.5985 309.039 51.6932C309.039 50.7992 309.205 50.0114 309.539 49.3295C309.876 48.6477 310.346 48.1155 310.948 47.733C311.554 47.3504 312.262 47.1591 313.073 47.1591C313.565 47.1591 314.043 47.2405 314.505 47.4034C314.967 47.5663 315.382 47.822 315.749 48.1705C316.116 48.5189 316.406 48.9716 316.618 49.5284C316.83 50.0814 316.937 50.7538 316.937 51.5455V52.1477H309.999V50.875H315.272C315.272 50.428 315.181 50.0322 314.999 49.6875C314.817 49.339 314.562 49.0644 314.232 48.8636C313.906 48.6629 313.524 48.5625 313.084 48.5625C312.607 48.5625 312.19 48.6799 311.834 48.9148C311.482 49.1458 311.209 49.4489 311.016 49.8239C310.827 50.1951 310.732 50.5985 310.732 51.0341V52.0284C310.732 52.6117 310.834 53.108 311.039 53.517C311.247 53.9261 311.537 54.2386 311.908 54.4545C312.279 54.6667 312.713 54.7727 313.209 54.7727C313.531 54.7727 313.825 54.7273 314.09 54.6364C314.355 54.5417 314.584 54.4015 314.777 54.2159C314.971 54.0303 315.118 53.8011 315.221 53.5284L316.829 53.8182C316.7 54.2917 316.469 54.7064 316.135 55.0625C315.806 55.4148 315.391 55.6894 314.891 55.8864C314.395 56.0795 313.829 56.1761 313.192 56.1761ZM321.361 56.1932C320.808 56.1932 320.308 56.0909 319.861 55.8864C319.414 55.678 319.06 55.3769 318.799 54.983C318.541 54.589 318.412 54.1061 318.412 53.5341C318.412 53.0417 318.507 52.6364 318.696 52.3182C318.886 52 319.142 51.7481 319.464 51.5625C319.786 51.3769 320.145 51.2367 320.543 51.142C320.941 51.0473 321.346 50.9754 321.759 50.9261C322.282 50.8655 322.706 50.8163 323.032 50.7784C323.357 50.7367 323.594 50.6705 323.742 50.5795C323.89 50.4886 323.964 50.3409 323.964 50.1364V50.0966C323.964 49.6004 323.823 49.2159 323.543 48.9432C323.267 48.6705 322.854 48.5341 322.304 48.5341C321.732 48.5341 321.282 48.661 320.952 48.9148C320.626 49.1648 320.401 49.4432 320.276 49.75L318.679 49.3864C318.869 48.8561 319.145 48.428 319.509 48.1023C319.876 47.7727 320.299 47.5341 320.776 47.3864C321.253 47.2348 321.755 47.1591 322.282 47.1591C322.63 47.1591 323 47.2008 323.39 47.2841C323.784 47.3636 324.151 47.5114 324.492 47.7273C324.837 47.9432 325.119 48.2519 325.339 48.6534C325.558 49.0511 325.668 49.5682 325.668 50.2045V56H324.009V54.8068H323.941C323.831 55.0265 323.666 55.2424 323.446 55.4545C323.227 55.6667 322.945 55.8428 322.6 55.983C322.255 56.1231 321.842 56.1932 321.361 56.1932ZM321.731 54.8295C322.2 54.8295 322.602 54.7367 322.935 54.5511C323.272 54.3655 323.528 54.1231 323.702 53.8239C323.88 53.5208 323.969 53.197 323.969 52.8523V51.7273C323.909 51.7879 323.791 51.8447 323.617 51.8977C323.446 51.947 323.251 51.9905 323.032 52.0284C322.812 52.0625 322.598 52.0947 322.39 52.125C322.181 52.1515 322.007 52.1742 321.867 52.1932C321.537 52.2348 321.236 52.3049 320.964 52.4034C320.695 52.5019 320.479 52.6439 320.316 52.8295C320.157 53.0114 320.077 53.2538 320.077 53.5568C320.077 53.9773 320.232 54.2955 320.543 54.5114C320.854 54.7235 321.25 54.8295 321.731 54.8295ZM332.005 47.2727V48.6364H327.238V47.2727H332.005ZM328.516 45.1818H330.215V53.4375C330.215 53.767 330.264 54.0152 330.363 54.1818C330.461 54.3447 330.588 54.4564 330.743 54.517C330.902 54.5739 331.075 54.6023 331.26 54.6023C331.397 54.6023 331.516 54.5928 331.618 54.5739C331.721 54.5549 331.8 54.5398 331.857 54.5284L332.164 55.9318C332.065 55.9697 331.925 56.0076 331.743 56.0455C331.562 56.0871 331.334 56.1098 331.062 56.1136C330.615 56.1212 330.198 56.0417 329.812 55.875C329.425 55.7083 329.113 55.4508 328.874 55.1023C328.635 54.7538 328.516 54.3163 328.516 53.7898V45.1818ZM337.552 56.1761C336.692 56.1761 335.951 55.9924 335.33 55.625C334.713 55.2538 334.235 54.733 333.898 54.0625C333.565 53.3883 333.398 52.5985 333.398 51.6932C333.398 50.7992 333.565 50.0114 333.898 49.3295C334.235 48.6477 334.705 48.1155 335.307 47.733C335.913 47.3504 336.622 47.1591 337.432 47.1591C337.925 47.1591 338.402 47.2405 338.864 47.4034C339.326 47.5663 339.741 47.822 340.108 48.1705C340.476 48.5189 340.766 48.9716 340.978 49.5284C341.19 50.0814 341.296 50.7538 341.296 51.5455V52.1477H334.358V50.875H339.631C339.631 50.428 339.54 50.0322 339.358 49.6875C339.177 49.339 338.921 49.0644 338.591 48.8636C338.266 48.6629 337.883 48.5625 337.444 48.5625C336.966 48.5625 336.55 48.6799 336.194 48.9148C335.841 49.1458 335.569 49.4489 335.375 49.8239C335.186 50.1951 335.091 50.5985 335.091 51.0341V52.0284C335.091 52.6117 335.194 53.108 335.398 53.517C335.607 53.9261 335.896 54.2386 336.268 54.4545C336.639 54.6667 337.072 54.7727 337.569 54.7727C337.891 54.7727 338.184 54.7273 338.449 54.6364C338.714 54.5417 338.944 54.4015 339.137 54.2159C339.33 54.0303 339.478 53.8011 339.58 53.5284L341.188 53.8182C341.059 54.2917 340.828 54.7064 340.495 55.0625C340.165 55.4148 339.75 55.6894 339.25 55.8864C338.754 56.0795 338.188 56.1761 337.552 56.1761Z" fill="#282D46"/>
<circle cx="450" cy="50" r="50" fill="#3DDC91" fill-opacity="0.25"/>
<path d="M434.165 45.875V44.3636H443.171V45.875H439.54V56H437.79V45.875H434.165ZM447.52 56.1761C446.661 56.1761 445.92 55.9924 445.299 55.625C444.681 55.2538 444.204 54.733 443.867 54.0625C443.534 53.3883 443.367 52.5985 443.367 51.6932C443.367 50.7992 443.534 50.0114 443.867 49.3295C444.204 48.6477 444.674 48.1155 445.276 47.733C445.882 47.3504 446.59 47.1591 447.401 47.1591C447.893 47.1591 448.371 47.2405 448.833 47.4034C449.295 47.5663 449.71 47.822 450.077 48.1705C450.445 48.5189 450.734 48.9716 450.946 49.5284C451.159 50.0814 451.265 50.7538 451.265 51.5455V52.1477H444.327V50.875H449.6C449.6 50.428 449.509 50.0322 449.327 49.6875C449.145 49.339 448.89 49.0644 448.56 48.8636C448.234 48.6629 447.852 48.5625 447.412 48.5625C446.935 48.5625 446.518 48.6799 446.162 48.9148C445.81 49.1458 445.537 49.4489 445.344 49.8239C445.155 50.1951 445.06 50.5985 445.06 51.0341V52.0284C445.06 52.6117 445.162 53.108 445.367 53.517C445.575 53.9261 445.865 54.2386 446.236 54.4545C446.607 54.6667 447.041 54.7727 447.537 54.7727C447.859 54.7727 448.153 54.7273 448.418 54.6364C448.683 54.5417 448.912 54.4015 449.106 54.2159C449.299 54.0303 449.446 53.8011 449.549 53.5284L451.157 53.8182C451.028 54.2917 450.797 54.7064 450.464 55.0625C450.134 55.4148 449.719 55.6894 449.219 55.8864C448.723 56.0795 448.157 56.1761 447.52 56.1761ZM459.689 49.4034L458.15 49.6761C458.085 49.4792 457.983 49.2917 457.843 49.1136C457.706 48.9356 457.521 48.7898 457.286 48.6761C457.051 48.5625 456.758 48.5057 456.405 48.5057C455.924 48.5057 455.523 48.6136 455.201 48.8295C454.879 49.0417 454.718 49.3163 454.718 49.6534C454.718 49.9451 454.826 50.1799 455.042 50.358C455.258 50.536 455.606 50.6818 456.087 50.7955L457.473 51.1136C458.277 51.2992 458.875 51.5852 459.269 51.9716C459.663 52.358 459.86 52.8598 459.86 53.4773C459.86 54 459.708 54.4659 459.405 54.875C459.106 55.2803 458.687 55.5985 458.15 55.8295C457.616 56.0606 456.996 56.1761 456.292 56.1761C455.314 56.1761 454.517 55.9678 453.9 55.5511C453.282 55.1307 452.903 54.5341 452.763 53.7614L454.405 53.5114C454.508 53.9394 454.718 54.2633 455.036 54.483C455.354 54.6989 455.769 54.8068 456.28 54.8068C456.837 54.8068 457.282 54.6913 457.616 54.4602C457.949 54.2254 458.116 53.9394 458.116 53.6023C458.116 53.3295 458.013 53.1004 457.809 52.9148C457.608 52.7292 457.299 52.589 456.883 52.4943L455.405 52.1705C454.591 51.9848 453.989 51.6894 453.598 51.2841C453.212 50.8788 453.019 50.3655 453.019 49.7443C453.019 49.2292 453.163 48.7784 453.451 48.392C453.739 48.0057 454.136 47.7045 454.644 47.4886C455.152 47.2689 455.733 47.1591 456.388 47.1591C457.331 47.1591 458.074 47.3636 458.616 47.7727C459.157 48.178 459.515 48.7216 459.689 49.4034ZM465.802 47.2727V48.6364H461.035V47.2727H465.802ZM462.313 45.1818H464.012V53.4375C464.012 53.767 464.061 54.0152 464.16 54.1818C464.258 54.3447 464.385 54.4564 464.54 54.517C464.699 54.5739 464.872 54.6023 465.057 54.6023C465.194 54.6023 465.313 54.5928 465.415 54.5739C465.518 54.5549 465.597 54.5398 465.654 54.5284L465.961 55.9318C465.862 55.9697 465.722 56.0076 465.54 56.0455C465.358 56.0871 465.131 56.1098 464.858 56.1136C464.411 56.1212 463.995 56.0417 463.608 55.875C463.222 55.7083 462.91 55.4508 462.671 55.1023C462.432 54.7538 462.313 54.3163 462.313 53.7898V45.1818Z" fill="#282D46"/>
<circle cx="582" cy="50" r="50" fill="#3DDC91" fill-opacity="0.25"/>
<path d="M559.06 55.9998V44.3634H563.207C564.109 44.3634 564.857 44.5187 565.452 44.8293C566.05 45.1399 566.497 45.5699 566.793 46.1191C567.088 46.6646 567.236 47.2952 567.236 48.0111C567.236 48.7233 567.086 49.3502 566.787 49.8918C566.491 50.4297 566.045 50.8483 565.446 51.1475C564.851 51.4468 564.103 51.5964 563.202 51.5964H560.06V50.085H563.043C563.611 50.085 564.073 50.0036 564.429 49.8407C564.789 49.6778 565.052 49.4411 565.219 49.1305C565.385 48.8199 565.469 48.4468 565.469 48.0111C565.469 47.5718 565.384 47.1911 565.213 46.8691C565.046 46.5471 564.783 46.3009 564.423 46.1305C564.067 45.9562 563.599 45.8691 563.02 45.8691H560.815V55.9998H559.06ZM564.804 50.7498L567.679 55.9998H565.679L562.861 50.7498H564.804ZM572.888 56.1759C572.028 56.1759 571.287 55.9922 570.666 55.6248C570.049 55.2536 569.571 54.7327 569.234 54.0623C568.901 53.388 568.734 52.5983 568.734 51.693C568.734 50.799 568.901 50.0111 569.234 49.3293C569.571 48.6475 570.041 48.1153 570.643 47.7327C571.25 47.3502 571.958 47.1589 572.768 47.1589C573.261 47.1589 573.738 47.2403 574.2 47.4032C574.662 47.5661 575.077 47.8218 575.445 48.1702C575.812 48.5187 576.102 48.9714 576.314 49.5282C576.526 50.0812 576.632 50.7536 576.632 51.5452V52.1475H569.695V50.8748H574.967C574.967 50.4278 574.876 50.032 574.695 49.6873C574.513 49.3388 574.257 49.0642 573.928 48.8634C573.602 48.6627 573.219 48.5623 572.78 48.5623C572.303 48.5623 571.886 48.6797 571.53 48.9146C571.178 49.1456 570.905 49.4486 570.712 49.8236C570.522 50.1949 570.428 50.5983 570.428 51.0339V52.0282C570.428 52.6115 570.53 53.1077 570.734 53.5168C570.943 53.9259 571.232 54.2384 571.604 54.4543C571.975 54.6665 572.409 54.7725 572.905 54.7725C573.227 54.7725 573.52 54.7271 573.786 54.6362C574.051 54.5415 574.28 54.4013 574.473 54.2157C574.666 54.0301 574.814 53.8009 574.916 53.5282L576.524 53.818C576.395 54.2915 576.164 54.7062 575.831 55.0623C575.501 55.4146 575.087 55.6892 574.587 55.8862C574.09 56.0793 573.524 56.1759 572.888 56.1759ZM582.67 47.2725V48.6361H577.739V47.2725H582.67ZM579.091 55.9998V46.2611C579.091 45.7157 579.21 45.263 579.449 44.9032C579.688 44.5396 580.004 44.2687 580.398 44.0907C580.792 43.9089 581.22 43.818 581.682 43.818C582.023 43.818 582.314 43.8464 582.557 43.9032C582.799 43.9562 582.979 44.0055 583.097 44.0509L582.699 45.4259C582.619 45.4032 582.517 45.3767 582.392 45.3464C582.267 45.3123 582.116 45.2952 581.938 45.2952C581.525 45.2952 581.229 45.3975 581.051 45.6021C580.877 45.8066 580.79 46.1021 580.79 46.4884V55.9998H579.091ZM584.423 55.9998V47.2725H586.122V55.9998H584.423ZM585.281 45.9259C584.986 45.9259 584.732 45.8274 584.52 45.6305C584.312 45.4297 584.207 45.1911 584.207 44.9146C584.207 44.6343 584.312 44.3956 584.52 44.1986C584.732 43.9979 584.986 43.8975 585.281 43.8975C585.577 43.8975 585.829 43.9979 586.037 44.1986C586.249 44.3956 586.355 44.6343 586.355 44.9146C586.355 45.1911 586.249 45.4297 586.037 45.6305C585.829 45.8274 585.577 45.9259 585.281 45.9259ZM590.107 50.818V55.9998H588.408V47.2725H590.038V48.693H590.146C590.347 48.2308 590.661 47.8596 591.089 47.5793C591.521 47.299 592.065 47.1589 592.72 47.1589C593.315 47.1589 593.836 47.2839 594.283 47.5339C594.73 47.7801 595.076 48.1475 595.322 48.6361C595.569 49.1248 595.692 49.729 595.692 50.4486V55.9998H593.993V50.6532C593.993 50.0206 593.828 49.5263 593.499 49.1702C593.169 48.8104 592.716 48.6305 592.141 48.6305C591.747 48.6305 591.396 48.7157 591.089 48.8861C590.786 49.0566 590.546 49.3066 590.368 49.6361C590.194 49.9619 590.107 50.3558 590.107 50.818ZM601.732 56.1759C600.872 56.1759 600.131 55.9922 599.51 55.6248C598.893 55.2536 598.415 54.7327 598.078 54.0623C597.745 53.388 597.578 52.5983 597.578 51.693C597.578 50.799 597.745 50.0111 598.078 49.3293C598.415 48.6475 598.885 48.1153 599.487 47.7327C600.093 47.3502 600.802 47.1589 601.612 47.1589C602.105 47.1589 602.582 47.2403 603.044 47.4032C603.506 47.5661 603.921 47.8218 604.288 48.1702C604.656 48.5187 604.946 48.9714 605.158 49.5282C605.37 50.0812 605.476 50.7536 605.476 51.5452V52.1475H598.538V50.8748H603.811C603.811 50.4278 603.72 50.032 603.538 49.6873C603.357 49.3388 603.101 49.0642 602.771 48.8634C602.446 48.6627 602.063 48.5623 601.624 48.5623C601.146 48.5623 600.73 48.6797 600.374 48.9146C600.021 49.1456 599.749 49.4486 599.555 49.8236C599.366 50.1949 599.271 50.5983 599.271 51.0339V52.0282C599.271 52.6115 599.374 53.1077 599.578 53.5168C599.786 53.9259 600.076 54.2384 600.447 54.4543C600.819 54.6665 601.252 54.7725 601.749 54.7725C602.071 54.7725 602.364 54.7271 602.629 54.6362C602.894 54.5415 603.124 54.4013 603.317 54.2157C603.51 54.0301 603.658 53.8009 603.76 53.5282L605.368 53.818C605.239 54.2915 605.008 54.7062 604.675 55.0623C604.345 55.4146 603.93 55.6892 603.43 55.8862C602.934 56.0793 602.368 56.1759 601.732 56.1759Z" fill="#282D46"/>
<circle cx="714" cy="50" r="50" fill="#3DDC91" fill-opacity="0.25"/>
<path d="M692.444 56H688.677V44.3636H692.563C693.703 44.3636 694.682 44.5966 695.5 45.0625C696.319 45.5246 696.946 46.1894 697.381 47.0568C697.821 47.9205 698.04 48.9564 698.04 50.1648C698.04 51.3769 697.819 52.4186 697.375 53.2898C696.936 54.161 696.3 54.8314 695.466 55.3011C694.633 55.767 693.625 56 692.444 56ZM690.432 54.4659H692.347C693.233 54.4659 693.97 54.2992 694.557 53.9659C695.144 53.6288 695.584 53.142 695.875 52.5057C696.167 51.8655 696.313 51.0852 696.313 50.1648C696.313 49.2519 696.167 48.4773 695.875 47.8409C695.588 47.2045 695.158 46.7216 694.586 46.392C694.014 46.0625 693.303 45.8977 692.455 45.8977H690.432V54.4659ZM703.848 56.1761C702.989 56.1761 702.248 55.9924 701.627 55.625C701.009 55.2538 700.532 54.733 700.195 54.0625C699.862 53.3883 699.695 52.5985 699.695 51.6932C699.695 50.7992 699.862 50.0114 700.195 49.3295C700.532 48.6477 701.002 48.1155 701.604 47.733C702.21 47.3504 702.919 47.1591 703.729 47.1591C704.222 47.1591 704.699 47.2405 705.161 47.4034C705.623 47.5663 706.038 47.822 706.405 48.1705C706.773 48.5189 707.062 48.9716 707.275 49.5284C707.487 50.0814 707.593 50.7538 707.593 51.5455V52.1477H700.655V50.875H705.928C705.928 50.428 705.837 50.0322 705.655 49.6875C705.473 49.339 705.218 49.0644 704.888 48.8636C704.562 48.6629 704.18 48.5625 703.741 48.5625C703.263 48.5625 702.847 48.6799 702.491 48.9148C702.138 49.1458 701.866 49.4489 701.672 49.8239C701.483 50.1951 701.388 50.5985 701.388 51.0341V52.0284C701.388 52.6117 701.491 53.108 701.695 53.517C701.903 53.9261 702.193 54.2386 702.564 54.4545C702.936 54.6667 703.369 54.7727 703.866 54.7727C704.187 54.7727 704.481 54.7273 704.746 54.6364C705.011 54.5417 705.241 54.4015 705.434 54.2159C705.627 54.0303 705.775 53.8011 705.877 53.5284L707.485 53.8182C707.356 54.2917 707.125 54.7064 706.792 55.0625C706.462 55.4148 706.047 55.6894 705.547 55.8864C705.051 56.0795 704.485 56.1761 703.848 56.1761ZM711.177 44.3636V56H709.478V44.3636H711.177ZM713.462 56V47.2727H715.161V56H713.462ZM714.32 45.9261C714.025 45.9261 713.771 45.8277 713.559 45.6307C713.35 45.4299 713.246 45.1913 713.246 44.9148C713.246 44.6345 713.35 44.3958 713.559 44.1989C713.771 43.9981 714.025 43.8977 714.32 43.8977C714.616 43.8977 714.867 43.9981 715.076 44.1989C715.288 44.3958 715.394 44.6345 715.394 44.9148C715.394 45.1913 715.288 45.4299 715.076 45.6307C714.867 45.8277 714.616 45.9261 714.32 45.9261ZM724.912 47.2727L721.748 56H719.929L716.759 47.2727H718.583L720.793 53.9886H720.884L723.089 47.2727H724.912ZM729.973 56.1761C729.114 56.1761 728.373 55.9924 727.752 55.625C727.134 55.2538 726.657 54.733 726.32 54.0625C725.987 53.3883 725.82 52.5985 725.82 51.6932C725.82 50.7992 725.987 50.0114 726.32 49.3295C726.657 48.6477 727.127 48.1155 727.729 47.733C728.335 47.3504 729.044 47.1591 729.854 47.1591C730.347 47.1591 730.824 47.2405 731.286 47.4034C731.748 47.5663 732.163 47.822 732.53 48.1705C732.898 48.5189 733.187 48.9716 733.4 49.5284C733.612 50.0814 733.718 50.7538 733.718 51.5455V52.1477H726.78V50.875H732.053C732.053 50.428 731.962 50.0322 731.78 49.6875C731.598 49.339 731.343 49.0644 731.013 48.8636C730.687 48.6629 730.305 48.5625 729.866 48.5625C729.388 48.5625 728.972 48.6799 728.616 48.9148C728.263 49.1458 727.991 49.4489 727.797 49.8239C727.608 50.1951 727.513 50.5985 727.513 51.0341V52.0284C727.513 52.6117 727.616 53.108 727.82 53.517C728.028 53.9261 728.318 54.2386 728.689 54.4545C729.061 54.6667 729.494 54.7727 729.991 54.7727C730.312 54.7727 730.606 54.7273 730.871 54.6364C731.136 54.5417 731.366 54.4015 731.559 54.2159C731.752 54.0303 731.9 53.8011 732.002 53.5284L733.61 53.8182C733.481 54.2917 733.25 54.7064 732.917 55.0625C732.587 55.4148 732.172 55.6894 731.672 55.8864C731.176 56.0795 730.61 56.1761 729.973 56.1761ZM735.603 56V47.2727H737.245V48.6591H737.336C737.495 48.1894 737.775 47.8201 738.177 47.5511C738.582 47.2784 739.04 47.142 739.552 47.142C739.658 47.142 739.783 47.1458 739.927 47.1534C740.074 47.161 740.19 47.1705 740.273 47.1818V48.8068C740.205 48.7879 740.084 48.767 739.91 48.7443C739.735 48.7178 739.561 48.7045 739.387 48.7045C738.985 48.7045 738.627 48.7898 738.313 48.9602C738.002 49.1269 737.756 49.3598 737.574 49.6591C737.393 49.9545 737.302 50.2917 737.302 50.6705V56H735.603Z" fill="#282D46"/>
</svg>
