<svg width="234" height="213" viewBox="0 0 234 213" fill="none" xmlns="http://www.w3.org/2000/svg">
<circle cx="50.699" cy="162.257" r="50" fill="#3DDC91" fill-opacity="0.25"/>
<path d="M22.0101 165H18.243V153.363H22.1294C23.2695 153.363 24.2487 153.596 25.0669 154.062C25.8851 154.524 26.5119 155.189 26.9476 156.056C27.3869 156.92 27.6066 157.956 27.6066 159.164C27.6066 160.377 27.3851 161.418 26.9419 162.289C26.5025 163.161 25.8661 163.831 25.0328 164.301C24.1994 164.767 23.1919 165 22.0101 165ZM19.9987 163.466H21.9135C22.7998 163.466 23.5366 163.299 24.1237 162.966C24.7108 162.628 25.1502 162.142 25.4419 161.505C25.7335 160.865 25.8794 160.085 25.8794 159.164C25.8794 158.252 25.7335 157.477 25.4419 156.841C25.154 156.204 24.7241 155.721 24.1521 155.392C23.5801 155.062 22.8699 154.897 22.0214 154.897H19.9987V163.466ZM33.4149 165.176C32.555 165.176 31.8145 164.992 31.1933 164.625C30.5759 164.253 30.0986 163.733 29.7615 163.062C29.4281 162.388 29.2615 161.598 29.2615 160.693C29.2615 159.799 29.4281 159.011 29.7615 158.329C30.0986 157.647 30.5683 157.115 31.1706 156.733C31.7766 156.35 32.485 156.159 33.2956 156.159C33.788 156.159 34.2653 156.24 34.7274 156.403C35.1895 156.566 35.6043 156.822 35.9717 157.17C36.3391 157.519 36.6289 157.971 36.841 158.528C37.0531 159.081 37.1592 159.753 37.1592 160.545V161.147H30.2217V159.875H35.4944C35.4944 159.428 35.4035 159.032 35.2217 158.687C35.0399 158.339 34.7842 158.064 34.4547 157.863C34.1289 157.663 33.7463 157.562 33.3069 157.562C32.8297 157.562 32.413 157.68 32.0569 157.914C31.7047 158.145 31.4319 158.448 31.2387 158.823C31.0494 159.195 30.9547 159.598 30.9547 160.034V161.028C30.9547 161.611 31.0569 162.108 31.2615 162.517C31.4698 162.926 31.7596 163.238 32.1308 163.454C32.502 163.666 32.9357 163.772 33.4319 163.772C33.7539 163.772 34.0475 163.727 34.3126 163.636C34.5778 163.541 34.8069 163.401 35.0001 163.216C35.1933 163.03 35.341 162.801 35.4433 162.528L37.0512 162.818C36.9225 163.291 36.6914 163.706 36.3581 164.062C36.0285 164.414 35.6137 164.689 35.1137 164.886C34.6175 165.079 34.0512 165.176 33.4149 165.176ZM45.5839 158.403L44.0441 158.676C43.9798 158.479 43.8775 158.291 43.7373 158.113C43.601 157.935 43.4154 157.789 43.1805 157.676C42.9457 157.562 42.6521 157.505 42.2998 157.505C41.8188 157.505 41.4173 157.613 41.0953 157.829C40.7733 158.041 40.6123 158.316 40.6123 158.653C40.6123 158.945 40.7203 159.18 40.9362 159.358C41.1521 159.536 41.5006 159.681 41.9816 159.795L43.368 160.113C44.171 160.299 44.7695 160.585 45.1635 160.971C45.5574 161.358 45.7544 161.859 45.7544 162.477C45.7544 163 45.6029 163.466 45.2998 163.875C45.0006 164.28 44.582 164.598 44.0441 164.829C43.5101 165.06 42.8907 165.176 42.1862 165.176C41.2089 165.176 40.4116 164.967 39.7941 164.551C39.1767 164.13 38.7979 163.534 38.6578 162.761L40.2998 162.511C40.4021 162.939 40.6123 163.263 40.9305 163.483C41.2487 163.698 41.6635 163.806 42.1748 163.806C42.7316 163.806 43.1767 163.691 43.5101 163.46C43.8434 163.225 44.0101 162.939 44.0101 162.602C44.0101 162.329 43.9078 162.1 43.7032 161.914C43.5025 161.729 43.1938 161.589 42.7771 161.494L41.2998 161.17C40.4854 160.984 39.8832 160.689 39.493 160.284C39.1066 159.878 38.9135 159.365 38.9135 158.744C38.9135 158.229 39.0574 157.778 39.3453 157.392C39.6332 157.005 40.0309 156.704 40.5385 156.488C41.046 156.269 41.6275 156.159 42.2828 156.159C43.226 156.159 43.9684 156.363 44.5101 156.772C45.0517 157.178 45.4097 157.721 45.5839 158.403ZM47.6223 165V156.272H49.3211V165H47.6223ZM48.4802 154.926C48.1848 154.926 47.931 154.827 47.7189 154.63C47.5105 154.43 47.4064 154.191 47.4064 153.914C47.4064 153.634 47.5105 153.395 47.7189 153.198C47.931 152.998 48.1848 152.897 48.4802 152.897C48.7757 152.897 49.0276 152.998 49.2359 153.198C49.448 153.395 49.5541 153.634 49.5541 153.914C49.5541 154.191 49.448 154.43 49.2359 154.63C49.0276 154.827 48.7757 154.926 48.4802 154.926ZM55.2657 168.454C54.5726 168.454 53.976 168.363 53.476 168.181C52.9798 168 52.5744 167.759 52.2601 167.46C51.9457 167.161 51.7108 166.833 51.5555 166.477L53.0157 165.875C53.118 166.041 53.2544 166.217 53.4248 166.403C53.5991 166.592 53.8339 166.753 54.1294 166.886C54.4286 167.019 54.8131 167.085 55.2828 167.085C55.9267 167.085 56.4589 166.928 56.8794 166.613C57.2998 166.303 57.5101 165.806 57.5101 165.125V163.409H57.4021C57.2998 163.594 57.1521 163.801 56.9589 164.028C56.7695 164.255 56.5082 164.452 56.1748 164.619C55.8415 164.786 55.4078 164.869 54.8737 164.869C54.1843 164.869 53.5631 164.708 53.0101 164.386C52.4608 164.06 52.0252 163.581 51.7032 162.948C51.3851 162.312 51.226 161.53 51.226 160.602C51.226 159.674 51.3832 158.878 51.6976 158.216C52.0157 157.553 52.4513 157.045 53.0044 156.693C53.5574 156.337 54.1843 156.159 54.8851 156.159C55.4267 156.159 55.8642 156.25 56.1976 156.431C56.5309 156.609 56.7904 156.818 56.976 157.056C57.1654 157.295 57.3112 157.505 57.4135 157.687H57.5385V156.272H59.2032V165.193C59.2032 165.943 59.029 166.558 58.6805 167.039C58.332 167.52 57.8604 167.877 57.2657 168.108C56.6748 168.339 56.0082 168.454 55.2657 168.454ZM55.2487 163.46C55.7373 163.46 56.1502 163.346 56.4873 163.119C56.8282 162.888 57.0858 162.558 57.2601 162.13C57.4381 161.698 57.5271 161.181 57.5271 160.579C57.5271 159.992 57.44 159.475 57.2657 159.028C57.0915 158.581 56.8358 158.233 56.4987 157.983C56.1616 157.729 55.7449 157.602 55.2487 157.602C54.7373 157.602 54.3112 157.734 53.9703 158C53.6294 158.261 53.3718 158.617 53.1976 159.068C53.0271 159.519 52.9419 160.022 52.9419 160.579C52.9419 161.151 53.029 161.653 53.2032 162.085C53.3775 162.517 53.6351 162.854 53.976 163.096C54.3207 163.339 54.7449 163.46 55.2487 163.46ZM63.1805 159.818V165H61.4816V156.272H63.1123V157.693H63.2203C63.421 157.231 63.7354 156.859 64.1635 156.579C64.5953 156.299 65.1388 156.159 65.7941 156.159C66.3888 156.159 66.9097 156.284 67.3566 156.534C67.8036 156.78 68.1502 157.147 68.3964 157.636C68.6426 158.125 68.7657 158.729 68.7657 159.448V165H67.0669V159.653C67.0669 159.02 66.9021 158.526 66.5726 158.17C66.243 157.81 65.7904 157.63 65.2146 157.63C64.8207 157.63 64.4703 157.716 64.1635 157.886C63.8604 158.056 63.6199 158.306 63.4419 158.636C63.2676 158.962 63.1805 159.356 63.1805 159.818ZM74.8055 165.176C73.9457 165.176 73.2051 164.992 72.5839 164.625C71.9665 164.253 71.4892 163.733 71.1521 163.062C70.8188 162.388 70.6521 161.598 70.6521 160.693C70.6521 159.799 70.8188 159.011 71.1521 158.329C71.4892 157.647 71.9589 157.115 72.5612 156.733C73.1673 156.35 73.8756 156.159 74.6862 156.159C75.1786 156.159 75.6559 156.24 76.118 156.403C76.5801 156.566 76.9949 156.822 77.3623 157.17C77.7298 157.519 78.0195 157.971 78.2316 158.528C78.4438 159.081 78.5498 159.753 78.5498 160.545V161.147H71.6123V159.875H76.8851C76.8851 159.428 76.7941 159.032 76.6123 158.687C76.4305 158.339 76.1748 158.064 75.8453 157.863C75.5195 157.663 75.1369 157.562 74.6976 157.562C74.2203 157.562 73.8036 157.68 73.4476 157.914C73.0953 158.145 72.8226 158.448 72.6294 158.823C72.44 159.195 72.3453 159.598 72.3453 160.034V161.028C72.3453 161.611 72.4476 162.108 72.6521 162.517C72.8604 162.926 73.1502 163.238 73.5214 163.454C73.8926 163.666 74.3263 163.772 74.8226 163.772C75.1445 163.772 75.4381 163.727 75.7032 163.636C75.9684 163.541 76.1976 163.401 76.3907 163.216C76.5839 163.03 76.7316 162.801 76.8339 162.528L78.4419 162.818C78.3131 163.291 78.082 163.706 77.7487 164.062C77.4191 164.414 77.0044 164.689 76.5044 164.886C76.0082 165.079 75.4419 165.176 74.8055 165.176ZM80.4348 165V156.272H82.0768V157.659H82.1677C82.3268 157.189 82.6071 156.82 83.0086 156.551C83.4139 156.278 83.8723 156.142 84.3836 156.142C84.4897 156.142 84.6147 156.145 84.7586 156.153C84.9064 156.161 85.0219 156.17 85.1052 156.181V157.806C85.037 157.788 84.9158 157.767 84.7416 157.744C84.5673 157.717 84.3931 157.704 84.2189 157.704C83.8173 157.704 83.4594 157.789 83.145 157.96C82.8344 158.127 82.5882 158.359 82.4064 158.659C82.2245 158.954 82.1336 159.291 82.1336 159.67V165H80.4348Z" fill="#282D46"/>
<circle cx="183.301" cy="162.258" r="50" fill="#3DDC91" fill-opacity="0.25"/>
<path d="M146.415 168V156.363H153.71V157.875H148.171V161.42H153.33V162.926H148.171V166.488H153.779V168H146.415ZM157.618 162.818V168H155.919V159.272H157.55V160.693H157.658C157.859 160.231 158.173 159.86 158.601 159.579C159.033 159.299 159.576 159.159 160.232 159.159C160.826 159.159 161.347 159.284 161.794 159.534C162.241 159.78 162.588 160.147 162.834 160.636C163.08 161.125 163.203 161.729 163.203 162.449V168H161.504V162.653C161.504 162.021 161.34 161.526 161.01 161.17C160.681 160.81 160.228 160.63 159.652 160.63C159.258 160.63 158.908 160.716 158.601 160.886C158.298 161.057 158.057 161.307 157.879 161.636C157.705 161.962 157.618 162.356 157.618 162.818ZM169.141 171.454C168.448 171.454 167.851 171.363 167.351 171.182C166.855 171 166.449 170.759 166.135 170.46C165.821 170.161 165.586 169.833 165.431 169.477L166.891 168.875C166.993 169.041 167.129 169.218 167.3 169.403C167.474 169.593 167.709 169.754 168.004 169.886C168.304 170.019 168.688 170.085 169.158 170.085C169.802 170.085 170.334 169.928 170.754 169.613C171.175 169.303 171.385 168.807 171.385 168.125V166.409H171.277C171.175 166.594 171.027 166.801 170.834 167.028C170.645 167.255 170.383 167.452 170.05 167.619C169.716 167.786 169.283 167.869 168.749 167.869C168.059 167.869 167.438 167.708 166.885 167.386C166.336 167.06 165.9 166.581 165.578 165.949C165.26 165.312 165.101 164.53 165.101 163.602C165.101 162.674 165.258 161.879 165.573 161.216C165.891 160.553 166.326 160.045 166.879 159.693C167.432 159.337 168.059 159.159 168.76 159.159C169.302 159.159 169.739 159.25 170.073 159.432C170.406 159.61 170.665 159.818 170.851 160.057C171.04 160.295 171.186 160.505 171.288 160.687H171.413V159.272H173.078V168.193C173.078 168.943 172.904 169.558 172.556 170.04C172.207 170.521 171.735 170.877 171.141 171.108C170.55 171.339 169.883 171.454 169.141 171.454ZM169.124 166.46C169.612 166.46 170.025 166.346 170.362 166.119C170.703 165.888 170.961 165.558 171.135 165.13C171.313 164.699 171.402 164.182 171.402 163.579C171.402 162.992 171.315 162.475 171.141 162.028C170.966 161.581 170.711 161.233 170.374 160.983C170.037 160.729 169.62 160.602 169.124 160.602C168.612 160.602 168.186 160.735 167.845 161C167.504 161.261 167.247 161.617 167.073 162.068C166.902 162.519 166.817 163.022 166.817 163.579C166.817 164.151 166.904 164.653 167.078 165.085C167.252 165.517 167.51 165.854 167.851 166.096C168.196 166.339 168.62 166.46 169.124 166.46ZM175.357 168V159.272H177.056V168H175.357ZM176.215 157.926C175.919 157.926 175.665 157.827 175.453 157.63C175.245 157.43 175.141 157.191 175.141 156.915C175.141 156.634 175.245 156.396 175.453 156.199C175.665 155.998 175.919 155.897 176.215 155.897C176.51 155.897 176.762 155.998 176.97 156.199C177.182 156.396 177.288 156.634 177.288 156.915C177.288 157.191 177.182 157.43 176.97 157.63C176.762 157.827 176.51 157.926 176.215 157.926ZM181.04 162.818V168H179.341V159.272H180.972V160.693H181.08C181.28 160.231 181.595 159.86 182.023 159.579C182.455 159.299 182.998 159.159 183.654 159.159C184.248 159.159 184.769 159.284 185.216 159.534C185.663 159.78 186.01 160.147 186.256 160.636C186.502 161.125 186.625 161.729 186.625 162.449V168H184.926V162.653C184.926 162.021 184.761 161.526 184.432 161.17C184.102 160.81 183.65 160.63 183.074 160.63C182.68 160.63 182.33 160.716 182.023 160.886C181.72 161.057 181.479 161.307 181.301 161.636C181.127 161.962 181.04 162.356 181.04 162.818ZM192.665 168.176C191.805 168.176 191.065 167.992 190.443 167.625C189.826 167.254 189.349 166.733 189.011 166.062C188.678 165.388 188.511 164.598 188.511 163.693C188.511 162.799 188.678 162.011 189.011 161.329C189.349 160.647 189.818 160.115 190.421 159.733C191.027 159.35 191.735 159.159 192.546 159.159C193.038 159.159 193.515 159.24 193.977 159.403C194.44 159.566 194.854 159.822 195.222 160.17C195.589 160.519 195.879 160.971 196.091 161.528C196.303 162.081 196.409 162.754 196.409 163.545V164.147H189.472V162.875H194.744C194.744 162.428 194.654 162.032 194.472 161.687C194.29 161.339 194.034 161.064 193.705 160.863C193.379 160.663 192.996 160.562 192.557 160.562C192.08 160.562 191.663 160.68 191.307 160.915C190.955 161.146 190.682 161.449 190.489 161.824C190.299 162.195 190.205 162.598 190.205 163.034V164.028C190.205 164.611 190.307 165.108 190.511 165.517C190.72 165.926 191.01 166.238 191.381 166.454C191.752 166.666 192.186 166.772 192.682 166.772C193.004 166.772 193.297 166.727 193.563 166.636C193.828 166.541 194.057 166.401 194.25 166.216C194.443 166.03 194.591 165.801 194.693 165.528L196.301 165.818C196.172 166.291 195.941 166.706 195.608 167.062C195.279 167.415 194.864 167.689 194.364 167.886C193.868 168.079 193.301 168.176 192.665 168.176ZM202.056 168.176C201.196 168.176 200.455 167.992 199.834 167.625C199.216 167.254 198.739 166.733 198.402 166.062C198.069 165.388 197.902 164.598 197.902 163.693C197.902 162.799 198.069 162.011 198.402 161.329C198.739 160.647 199.209 160.115 199.811 159.733C200.417 159.35 201.126 159.159 201.936 159.159C202.429 159.159 202.906 159.24 203.368 159.403C203.83 159.566 204.245 159.822 204.612 160.17C204.98 160.519 205.27 160.971 205.482 161.528C205.694 162.081 205.8 162.754 205.8 163.545V164.147H198.862V162.875H204.135C204.135 162.428 204.044 162.032 203.862 161.687C203.681 161.339 203.425 161.064 203.095 160.863C202.77 160.663 202.387 160.562 201.948 160.562C201.47 160.562 201.054 160.68 200.698 160.915C200.345 161.146 200.073 161.449 199.879 161.824C199.69 162.195 199.595 162.598 199.595 163.034V164.028C199.595 164.611 199.698 165.108 199.902 165.517C200.11 165.926 200.4 166.238 200.771 166.454C201.143 166.666 201.576 166.772 202.073 166.772C202.395 166.772 202.688 166.727 202.953 166.636C203.218 166.541 203.448 166.401 203.641 166.216C203.834 166.03 203.982 165.801 204.084 165.528L205.692 165.818C205.563 166.291 205.332 166.706 204.999 167.062C204.669 167.415 204.254 167.689 203.754 167.886C203.258 168.079 202.692 168.176 202.056 168.176ZM207.685 168V159.272H209.327V160.659H209.418C209.577 160.189 209.857 159.82 210.259 159.551C210.664 159.278 211.122 159.142 211.634 159.142C211.74 159.142 211.865 159.146 212.009 159.153C212.156 159.161 212.272 159.17 212.355 159.182V160.807C212.287 160.788 212.166 160.767 211.992 160.744C211.817 160.718 211.643 160.704 211.469 160.704C211.067 160.704 210.709 160.79 210.395 160.96C210.084 161.127 209.838 161.36 209.656 161.659C209.475 161.954 209.384 162.291 209.384 162.67V168H207.685ZM220.365 161.403L218.825 161.676C218.761 161.479 218.659 161.291 218.519 161.113C218.382 160.935 218.197 160.79 217.962 160.676C217.727 160.562 217.433 160.505 217.081 160.505C216.6 160.505 216.199 160.613 215.877 160.829C215.555 161.041 215.394 161.316 215.394 161.653C215.394 161.945 215.502 162.18 215.717 162.358C215.933 162.536 216.282 162.682 216.763 162.795L218.149 163.113C218.952 163.299 219.551 163.585 219.945 163.971C220.339 164.358 220.536 164.86 220.536 165.477C220.536 166 220.384 166.466 220.081 166.875C219.782 167.28 219.363 167.598 218.825 167.829C218.291 168.06 217.672 168.176 216.967 168.176C215.99 168.176 215.193 167.968 214.575 167.551C213.958 167.13 213.579 166.534 213.439 165.761L215.081 165.511C215.183 165.939 215.394 166.263 215.712 166.483C216.03 166.699 216.445 166.807 216.956 166.807C217.513 166.807 217.958 166.691 218.291 166.46C218.625 166.225 218.791 165.939 218.791 165.602C218.791 165.329 218.689 165.1 218.484 164.915C218.284 164.729 217.975 164.589 217.558 164.494L216.081 164.17C215.267 163.985 214.664 163.689 214.274 163.284C213.888 162.879 213.695 162.365 213.695 161.744C213.695 161.229 213.839 160.778 214.127 160.392C214.414 160.005 214.812 159.704 215.32 159.488C215.827 159.269 216.409 159.159 217.064 159.159C218.007 159.159 218.75 159.363 219.291 159.772C219.833 160.178 220.191 160.721 220.365 161.403Z" fill="#282D46"/>
<circle cx="120.067" cy="50.9607" r="50" fill="#3DDC91" fill-opacity="0.25"/>
<path d="M88.3839 46.9994V35.363H92.5316C93.4369 35.363 94.1869 35.5278 94.7816 35.8573C95.3763 36.1869 95.8214 36.6376 96.1168 37.2096C96.4123 37.7778 96.56 38.418 96.56 39.1301C96.56 39.846 96.4104 40.4899 96.1111 41.0619C95.8157 41.6301 95.3687 42.0808 94.7702 42.4142C94.1755 42.7437 93.4274 42.9085 92.5259 42.9085H89.6736V41.4198H92.3668C92.9388 41.4198 93.4028 41.3214 93.7589 41.1244C94.1149 40.9236 94.3763 40.6509 94.543 40.3062C94.7096 39.9615 94.793 39.5695 94.793 39.1301C94.793 38.6907 94.7096 38.3005 94.543 37.9596C94.3763 37.6187 94.113 37.3517 93.7532 37.1585C93.3971 36.9653 92.9274 36.8687 92.3441 36.8687H90.1396V46.9994H88.3839ZM98.4819 46.9994V38.2721H100.124V39.6585H100.215C100.374 39.1888 100.654 38.8195 101.056 38.5505C101.461 38.2778 101.919 38.1414 102.431 38.1414C102.537 38.1414 102.662 38.1452 102.806 38.1528C102.953 38.1604 103.069 38.1698 103.152 38.1812V39.8062C103.084 39.7873 102.963 39.7664 102.789 39.7437C102.614 39.7172 102.44 39.7039 102.266 39.7039C101.864 39.7039 101.507 39.7892 101.192 39.9596C100.882 40.1263 100.635 40.3592 100.453 40.6585C100.272 40.9539 100.181 41.2911 100.181 41.6698V46.9994H98.4819ZM107.986 47.1755C107.168 47.1755 106.454 46.988 105.844 46.613C105.234 46.238 104.761 45.7134 104.424 45.0392C104.087 44.3649 103.918 43.577 103.918 42.6755C103.918 41.7702 104.087 40.9786 104.424 40.3005C104.761 39.6225 105.234 39.096 105.844 38.721C106.454 38.346 107.168 38.1585 107.986 38.1585C108.804 38.1585 109.518 38.346 110.128 38.721C110.738 39.096 111.212 39.6225 111.549 40.3005C111.886 40.9786 112.054 41.7702 112.054 42.6755C112.054 43.577 111.886 44.3649 111.549 45.0392C111.212 45.7134 110.738 46.238 110.128 46.613C109.518 46.988 108.804 47.1755 107.986 47.1755ZM107.992 45.7494C108.522 45.7494 108.962 45.6092 109.31 45.3289C109.658 45.0486 109.916 44.6755 110.083 44.2096C110.253 43.7437 110.338 43.2305 110.338 42.6698C110.338 42.113 110.253 41.6017 110.083 41.1358C109.916 40.6661 109.658 40.2892 109.31 40.0051C108.962 39.721 108.522 39.5789 107.992 39.5789C107.458 39.5789 107.015 39.721 106.662 40.0051C106.314 40.2892 106.054 40.6661 105.884 41.1358C105.717 41.6017 105.634 42.113 105.634 42.6698C105.634 43.2305 105.717 43.7437 105.884 44.2096C106.054 44.6755 106.314 45.0486 106.662 45.3289C107.015 45.6092 107.458 45.7494 107.992 45.7494ZM117.218 47.1698C116.513 47.1698 115.884 46.9899 115.331 46.6301C114.782 46.2664 114.35 45.7494 114.036 45.0789C113.725 44.4047 113.57 43.596 113.57 42.6528C113.57 41.7096 113.727 40.9028 114.042 40.2323C114.36 39.5619 114.795 39.0486 115.348 38.6926C115.901 38.3365 116.528 38.1585 117.229 38.1585C117.771 38.1585 118.206 38.2494 118.536 38.4312C118.869 38.6092 119.127 38.8176 119.309 39.0562C119.494 39.2948 119.638 39.5051 119.74 39.6869H119.843V35.363H121.542V46.9994H119.882V45.6414H119.74C119.638 45.827 119.49 46.0392 119.297 46.2778C119.108 46.5164 118.846 46.7248 118.513 46.9028C118.18 47.0808 117.748 47.1698 117.218 47.1698ZM117.593 45.721C118.081 45.721 118.494 45.5922 118.831 45.3346C119.172 45.0733 119.43 44.7115 119.604 44.2494C119.782 43.7873 119.871 43.2494 119.871 42.6358C119.871 42.0297 119.784 41.4994 119.61 41.0448C119.435 40.5903 119.18 40.2361 118.843 39.9823C118.506 39.7286 118.089 39.6017 117.593 39.6017C117.081 39.6017 116.655 39.7342 116.314 39.9994C115.973 40.2645 115.716 40.6263 115.542 41.0846C115.371 41.5429 115.286 42.06 115.286 42.6358C115.286 43.2191 115.373 43.7437 115.547 44.2096C115.721 44.6755 115.979 45.0448 116.32 45.3176C116.665 45.5865 117.089 45.721 117.593 45.721ZM129.495 43.3801V38.2721H131.199V46.9994H129.529V45.488H129.438C129.237 45.9539 128.915 46.3422 128.472 46.6528C128.033 46.9596 127.485 47.113 126.83 47.113C126.269 47.113 125.773 46.9899 125.341 46.7437C124.913 46.4937 124.576 46.1244 124.33 45.6358C124.087 45.1471 123.966 44.543 123.966 43.8233V38.2721H125.665V43.6187C125.665 44.2134 125.83 44.6869 126.159 45.0392C126.489 45.3914 126.917 45.5676 127.444 45.5676C127.762 45.5676 128.078 45.488 128.392 45.3289C128.711 45.1698 128.974 44.9293 129.182 44.6073C129.394 44.2854 129.498 43.8763 129.495 43.3801ZM137.158 47.1755C136.313 47.1755 135.586 46.9842 134.976 46.6017C134.37 46.2153 133.904 45.6831 133.578 45.0051C133.253 44.327 133.09 43.5505 133.09 42.6755C133.09 41.7892 133.257 41.007 133.59 40.3289C133.923 39.6471 134.393 39.1149 134.999 38.7323C135.605 38.3498 136.319 38.1585 137.141 38.1585C137.804 38.1585 138.395 38.2816 138.914 38.5278C139.433 38.7702 139.851 39.1111 140.169 39.5505C140.491 39.9899 140.683 40.5032 140.743 41.0903H139.09C138.999 40.6812 138.791 40.3289 138.465 40.0335C138.143 39.738 137.711 39.5903 137.169 39.5903C136.696 39.5903 136.281 39.7153 135.925 39.9653C135.573 40.2115 135.298 40.5638 135.101 41.0221C134.904 41.4767 134.806 42.0145 134.806 42.6358C134.806 43.2721 134.902 43.8214 135.096 44.2835C135.289 44.7456 135.561 45.1036 135.914 45.3573C136.27 45.6111 136.688 45.738 137.169 45.738C137.491 45.738 137.783 45.6793 138.044 45.5619C138.31 45.4407 138.531 45.2683 138.709 45.0448C138.891 44.8214 139.018 44.5524 139.09 44.238H140.743C140.683 44.8024 140.499 45.3062 140.192 45.7494C139.885 46.1926 139.474 46.5411 138.959 46.7948C138.448 47.0486 137.847 47.1755 137.158 47.1755ZM146.634 38.2721V39.6358H141.867V38.2721H146.634ZM143.145 36.1812H144.844V44.4369C144.844 44.7664 144.893 45.0145 144.992 45.1812C145.09 45.3441 145.217 45.4558 145.373 45.5164C145.532 45.5733 145.704 45.6017 145.89 45.6017C146.026 45.6017 146.145 45.5922 146.248 45.5733C146.35 45.5543 146.429 45.5392 146.486 45.5278L146.793 46.9312C146.694 46.9691 146.554 47.007 146.373 47.0448C146.191 47.0865 145.963 47.1092 145.691 47.113C145.244 47.1206 144.827 47.0411 144.441 46.8744C144.054 46.7077 143.742 46.4501 143.503 46.1017C143.265 45.7532 143.145 45.3157 143.145 44.7892V36.1812ZM84.7432 55.363H86.8739L90.5785 64.4085H90.7148L94.4194 55.363H96.5501V66.9994H94.8796V58.5789H94.7717L91.3398 66.9823H89.9535L86.5217 58.5733H86.4137V66.9994H84.7432V55.363ZM101.506 67.1926C100.953 67.1926 100.453 67.0903 100.006 66.8858C99.5591 66.6774 99.2049 66.3763 98.9435 65.9823C98.686 65.5884 98.5572 65.1055 98.5572 64.5335C98.5572 64.0411 98.6519 63.6358 98.8413 63.3176C99.0307 62.9994 99.2863 62.7475 99.6083 62.5619C99.9303 62.3763 100.29 62.2361 100.688 62.1414C101.086 62.0467 101.491 61.9748 101.904 61.9255C102.426 61.8649 102.851 61.8157 103.176 61.7778C103.502 61.7361 103.739 61.6698 103.887 61.5789C104.034 61.488 104.108 61.3403 104.108 61.1358V61.096C104.108 60.5998 103.968 60.2153 103.688 59.9426C103.411 59.6698 102.998 59.5335 102.449 59.5335C101.877 59.5335 101.426 59.6604 101.097 59.9142C100.771 60.1642 100.546 60.4426 100.421 60.7494L98.8242 60.3858C99.0136 59.8555 99.2901 59.4274 99.6538 59.1017C100.021 58.7721 100.444 58.5335 100.921 58.3858C101.398 58.2342 101.9 58.1585 102.426 58.1585C102.775 58.1585 103.144 58.2001 103.534 58.2835C103.928 58.363 104.296 58.5108 104.637 58.7267C104.981 58.9426 105.264 59.2513 105.483 59.6528C105.703 60.0505 105.813 60.5676 105.813 61.2039V66.9994H104.154V65.8062H104.086C103.976 66.0259 103.811 66.2418 103.591 66.4539C103.372 66.6661 103.089 66.8422 102.745 66.9823C102.4 67.1225 101.987 67.1926 101.506 67.1926ZM101.875 65.8289C102.345 65.8289 102.747 65.7361 103.08 65.5505C103.417 65.3649 103.673 65.1225 103.847 64.8233C104.025 64.5202 104.114 64.1964 104.114 63.8517V62.7267C104.053 62.7873 103.936 62.8441 103.762 62.8971C103.591 62.9464 103.396 62.9899 103.176 63.0278C102.957 63.0619 102.743 63.0941 102.534 63.1244C102.326 63.1509 102.152 63.1736 102.012 63.1926C101.682 63.2342 101.381 63.3043 101.108 63.4028C100.839 63.5013 100.623 63.6433 100.461 63.8289C100.301 64.0108 100.222 64.2532 100.222 64.5562C100.222 64.9767 100.377 65.2948 100.688 65.5108C100.998 65.7229 101.394 65.8289 101.875 65.8289ZM109.774 61.8176V66.9994H108.076V58.2721H109.706V59.6926H109.814C110.015 59.2305 110.329 58.8592 110.757 58.5789C111.189 58.2986 111.733 58.1585 112.388 58.1585C112.983 58.1585 113.504 58.2835 113.951 58.5335C114.398 58.7797 114.744 59.1471 114.99 59.6358C115.237 60.1244 115.36 60.7286 115.36 61.4483V66.9994H113.661V61.6528C113.661 61.0202 113.496 60.5259 113.167 60.1698C112.837 59.81 112.384 59.6301 111.809 59.6301C111.415 59.6301 111.064 59.7153 110.757 59.8858C110.454 60.0562 110.214 60.3062 110.036 60.6358C109.862 60.9615 109.774 61.3555 109.774 61.8176ZM120.178 67.1926C119.625 67.1926 119.125 67.0903 118.678 66.8858C118.231 66.6774 117.877 66.3763 117.615 65.9823C117.358 65.5884 117.229 65.1055 117.229 64.5335C117.229 64.0411 117.324 63.6358 117.513 63.3176C117.703 62.9994 117.958 62.7475 118.28 62.5619C118.602 62.3763 118.962 62.2361 119.36 62.1414C119.757 62.0467 120.163 61.9748 120.576 61.9255C121.098 61.8649 121.523 61.8157 121.848 61.7778C122.174 61.7361 122.411 61.6698 122.559 61.5789C122.706 61.488 122.78 61.3403 122.78 61.1358V61.096C122.78 60.5998 122.64 60.2153 122.36 59.9426C122.083 59.6698 121.67 59.5335 121.121 59.5335C120.549 59.5335 120.098 59.6604 119.769 59.9142C119.443 60.1642 119.218 60.4426 119.093 60.7494L117.496 60.3858C117.685 59.8555 117.962 59.4274 118.326 59.1017C118.693 58.7721 119.115 58.5335 119.593 58.3858C120.07 58.2342 120.572 58.1585 121.098 58.1585C121.447 58.1585 121.816 58.2001 122.206 58.2835C122.6 58.363 122.968 58.5108 123.309 58.7267C123.653 58.9426 123.935 59.2513 124.155 59.6528C124.375 60.0505 124.485 60.5676 124.485 61.2039V66.9994H122.826V65.8062H122.757C122.648 66.0259 122.483 66.2418 122.263 66.4539C122.043 66.6661 121.761 66.8422 121.417 66.9823C121.072 67.1225 120.659 67.1926 120.178 67.1926ZM120.547 65.8289C121.017 65.8289 121.418 65.7361 121.752 65.5505C122.089 65.3649 122.345 65.1225 122.519 64.8233C122.697 64.5202 122.786 64.1964 122.786 63.8517V62.7267C122.725 62.7873 122.608 62.8441 122.434 62.8971C122.263 62.9464 122.068 62.9899 121.848 63.0278C121.629 63.0619 121.415 63.0941 121.206 63.1244C120.998 63.1509 120.824 63.1736 120.684 63.1926C120.354 63.2342 120.053 63.3043 119.78 63.4028C119.511 63.5013 119.295 63.6433 119.132 63.8289C118.973 64.0108 118.894 64.2532 118.894 64.5562C118.894 64.9767 119.049 65.2948 119.36 65.5108C119.67 65.7229 120.066 65.8289 120.547 65.8289ZM130.407 70.4539C129.713 70.4539 129.117 70.363 128.617 70.1812C128.121 69.9994 127.715 69.7589 127.401 69.4596C127.087 69.1604 126.852 68.8327 126.696 68.4767L128.157 67.8744C128.259 68.0411 128.395 68.2172 128.566 68.4028C128.74 68.5922 128.975 68.7532 129.27 68.8858C129.569 69.0183 129.954 69.0846 130.424 69.0846C131.068 69.0846 131.6 68.9274 132.02 68.613C132.441 68.3024 132.651 67.8062 132.651 67.1244V65.4085H132.543C132.441 65.5941 132.293 65.8005 132.1 66.0278C131.91 66.2551 131.649 66.452 131.316 66.6187C130.982 66.7854 130.549 66.8687 130.015 66.8687C129.325 66.8687 128.704 66.7077 128.151 66.3858C127.602 66.06 127.166 65.5808 126.844 64.9483C126.526 64.3119 126.367 63.5297 126.367 62.6017C126.367 61.6736 126.524 60.8782 126.838 60.2153C127.157 59.5524 127.592 59.0448 128.145 58.6926C128.698 58.3365 129.325 58.1585 130.026 58.1585C130.568 58.1585 131.005 58.2494 131.338 58.4312C131.672 58.6092 131.931 58.8176 132.117 59.0562C132.306 59.2948 132.452 59.5051 132.554 59.6869H132.679V58.2721H134.344V67.1926C134.344 67.9426 134.17 68.5581 133.821 69.0392C133.473 69.5202 133.001 69.8763 132.407 70.1073C131.816 70.3384 131.149 70.4539 130.407 70.4539ZM130.39 65.4596C130.878 65.4596 131.291 65.346 131.628 65.1187C131.969 64.8876 132.227 64.5581 132.401 64.1301C132.579 63.6983 132.668 63.1812 132.668 62.5789C132.668 61.9918 132.581 61.4748 132.407 61.0278C132.232 60.5808 131.977 60.2323 131.64 59.9823C131.302 59.7286 130.886 59.6017 130.39 59.6017C129.878 59.6017 129.452 59.7342 129.111 59.9994C128.77 60.2608 128.513 60.6168 128.338 61.0676C128.168 61.5183 128.083 62.0221 128.083 62.5789C128.083 63.1509 128.17 63.6528 128.344 64.0846C128.518 64.5164 128.776 64.8536 129.117 65.096C129.462 65.3384 129.886 65.4596 130.39 65.4596ZM140.384 67.1755C139.524 67.1755 138.783 66.9918 138.162 66.6244C137.545 66.2532 137.068 65.7323 136.73 65.0619C136.397 64.3876 136.23 63.5979 136.23 62.6926C136.23 61.7986 136.397 61.0108 136.73 60.3289C137.068 59.6471 137.537 59.1149 138.14 58.7323C138.746 58.3498 139.454 58.1585 140.265 58.1585C140.757 58.1585 141.234 58.2399 141.696 58.4028C142.158 58.5657 142.573 58.8214 142.941 59.1698C143.308 59.5183 143.598 59.971 143.81 60.5278C144.022 61.0808 144.128 61.7532 144.128 62.5448V63.1471H137.191V61.8744H142.463C142.463 61.4274 142.373 61.0316 142.191 60.6869C142.009 60.3384 141.753 60.0638 141.424 59.863C141.098 59.6623 140.715 59.5619 140.276 59.5619C139.799 59.5619 139.382 59.6793 139.026 59.9142C138.674 60.1452 138.401 60.4483 138.208 60.8233C138.018 61.1945 137.924 61.5979 137.924 62.0335V63.0278C137.924 63.6111 138.026 64.1073 138.23 64.5164C138.439 64.9255 138.729 65.238 139.1 65.4539C139.471 65.6661 139.905 65.7721 140.401 65.7721C140.723 65.7721 141.016 65.7267 141.282 65.6358C141.547 65.5411 141.776 65.4009 141.969 65.2153C142.162 65.0297 142.31 64.8005 142.412 64.5278L144.02 64.8176C143.891 65.2911 143.66 65.7058 143.327 66.0619C142.998 66.4142 142.583 66.6888 142.083 66.8858C141.587 67.0789 141.02 67.1755 140.384 67.1755ZM146.013 66.9994V58.2721H147.655V59.6585H147.746C147.905 59.1888 148.185 58.8195 148.587 58.5505C148.992 58.2778 149.451 58.1414 149.962 58.1414C150.068 58.1414 150.193 58.1452 150.337 58.1528C150.485 58.1604 150.6 58.1698 150.684 58.1812V59.8062C150.615 59.7873 150.494 59.7664 150.32 59.7437C150.146 59.7172 149.971 59.7039 149.797 59.7039C149.396 59.7039 149.038 59.7892 148.723 59.9596C148.413 60.1263 148.167 60.3592 147.985 60.6585C147.803 60.9539 147.712 61.2911 147.712 61.6698V66.9994H146.013Z" fill="#282D46"/>
</svg>
