<svg width="768" height="101" viewBox="0 0 768 101" fill="none" xmlns="http://www.w3.org/2000/svg">
<circle cx="54" cy="50.0563" r="50" fill="#3DDC91" fill-opacity="0.25"/>
<path d="M25.6314 56.0563H21.8643V44.4199H25.7507C26.8909 44.4199 27.87 44.6529 28.6882 45.1188C29.5064 45.5809 30.1333 46.2457 30.5689 47.1131C31.0083 47.9767 31.228 49.0127 31.228 50.221C31.228 51.4332 31.0064 52.4748 30.5632 53.346C30.1238 54.2173 29.4875 54.8877 28.6541 55.3574C27.8208 55.8233 26.8132 56.0563 25.6314 56.0563ZM23.62 54.5222H25.5348C26.4212 54.5222 27.1579 54.3555 27.745 54.0222C28.3321 53.6851 28.7715 53.1983 29.0632 52.562C29.3549 51.9218 29.5007 51.1415 29.5007 50.221C29.5007 49.3082 29.3549 48.5335 29.0632 47.8972C28.7753 47.2608 28.3454 46.7779 27.7734 46.4483C27.2015 46.1188 26.4912 45.954 25.6428 45.954H23.62V54.5222ZM33.2749 56.0563V47.329H34.9737V56.0563H33.2749ZM34.1328 45.9824C33.8374 45.9824 33.5836 45.8839 33.3714 45.687C33.1631 45.4862 33.0589 45.2476 33.0589 44.971C33.0589 44.6907 33.1631 44.4521 33.3714 44.2551C33.5836 44.0544 33.8374 43.954 34.1328 43.954C34.4283 43.954 34.6802 44.0544 34.8885 44.2551C35.1006 44.4521 35.2067 44.6907 35.2067 44.971C35.2067 45.2476 35.1006 45.4862 34.8885 45.687C34.6802 45.8839 34.4283 45.9824 34.1328 45.9824ZM43.799 49.4597L42.2592 49.7324C42.1948 49.5354 42.0926 49.3479 41.9524 49.1699C41.8161 48.9919 41.6304 48.846 41.3956 48.7324C41.1607 48.6188 40.8672 48.562 40.5149 48.562C40.0339 48.562 39.6323 48.6699 39.3104 48.8858C38.9884 49.0979 38.8274 49.3726 38.8274 49.7097C38.8274 50.0014 38.9354 50.2362 39.1513 50.4142C39.3672 50.5923 39.7157 50.7381 40.1967 50.8517L41.5831 51.1699C42.3861 51.3555 42.9846 51.6415 43.3786 52.0279C43.7725 52.4142 43.9695 52.9161 43.9695 53.5335C43.9695 54.0563 43.8179 54.5222 43.5149 54.9313C43.2157 55.3366 42.7971 55.6548 42.2592 55.8858C41.7251 56.1169 41.1058 56.2324 40.4013 56.2324C39.424 56.2324 38.6267 56.0241 38.0092 55.6074C37.3918 55.187 37.013 54.5904 36.8729 53.8176L38.5149 53.5676C38.6172 53.9957 38.8274 54.3195 39.1456 54.5392C39.4638 54.7551 39.8786 54.8631 40.3899 54.8631C40.9467 54.8631 41.3918 54.7476 41.7251 54.5165C42.0585 54.2817 42.2251 53.9957 42.2251 53.6585C42.2251 53.3858 42.1229 53.1567 41.9183 52.971C41.7176 52.7854 41.4089 52.6453 40.9922 52.5506L39.5149 52.2267C38.7005 52.0411 38.0982 51.7457 37.7081 51.3404C37.3217 50.9351 37.1286 50.4218 37.1286 49.8006C37.1286 49.2854 37.2725 48.8347 37.5604 48.4483C37.8482 48.062 38.246 47.7608 38.7536 47.5449C39.2611 47.3252 39.8426 47.2154 40.4979 47.2154C41.4411 47.2154 42.1835 47.4199 42.7251 47.829C43.2668 48.2343 43.6248 48.7779 43.799 49.4597ZM49.5135 56.2324C48.6688 56.2324 47.9415 56.0411 47.3317 55.6585C46.7256 55.2722 46.2597 54.74 45.9339 54.062C45.6082 53.3839 45.4453 52.6074 45.4453 51.7324C45.4453 50.846 45.612 50.0638 45.9453 49.3858C46.2786 48.704 46.7483 48.1718 47.3544 47.7892C47.9605 47.4067 48.6745 47.2154 49.4964 47.2154C50.1593 47.2154 50.7502 47.3385 51.2692 47.5847C51.7881 47.8271 52.2067 48.168 52.5249 48.6074C52.8468 49.0468 53.0381 49.5601 53.0987 50.1472H51.4453C51.3544 49.7381 51.1461 49.3858 50.8203 49.0904C50.4983 48.7949 50.0665 48.6472 49.5249 48.6472C49.0514 48.6472 48.6366 48.7722 48.2805 49.0222C47.9283 49.2684 47.6536 49.6207 47.4567 50.079C47.2597 50.5335 47.1612 51.0714 47.1612 51.6926C47.1612 52.329 47.2578 52.8782 47.451 53.3404C47.6442 53.8025 47.9169 54.1604 48.2692 54.4142C48.6252 54.668 49.0438 54.7949 49.5249 54.7949C49.8468 54.7949 50.1385 54.7362 50.3999 54.6188C50.665 54.4976 50.8866 54.3252 51.0646 54.1017C51.2464 53.8782 51.3733 53.6093 51.4453 53.2949H53.0987C53.0381 53.8593 52.8544 54.3631 52.5476 54.8063C52.2408 55.2495 51.8298 55.5979 51.3146 55.8517C50.8033 56.1055 50.2029 56.2324 49.5135 56.2324ZM58.5916 56.2324C57.7734 56.2324 57.0594 56.0449 56.4496 55.6699C55.8397 55.2949 55.3662 54.7703 55.0291 54.096C54.692 53.4218 54.5234 52.6339 54.5234 51.7324C54.5234 50.8271 54.692 50.0354 55.0291 49.3574C55.3662 48.6794 55.8397 48.1529 56.4496 47.7779C57.0594 47.4029 57.7734 47.2154 58.5916 47.2154C59.4098 47.2154 60.1238 47.4029 60.7337 47.7779C61.3435 48.1529 61.817 48.6794 62.1541 49.3574C62.4912 50.0354 62.6598 50.8271 62.6598 51.7324C62.6598 52.6339 62.4912 53.4218 62.1541 54.096C61.817 54.7703 61.3435 55.2949 60.7337 55.6699C60.1238 56.0449 59.4098 56.2324 58.5916 56.2324ZM58.5973 54.8063C59.1276 54.8063 59.567 54.6661 59.9155 54.3858C60.264 54.1055 60.5215 53.7324 60.6882 53.2665C60.8587 52.8006 60.9439 52.2873 60.9439 51.7267C60.9439 51.1699 60.8587 50.6585 60.6882 50.1926C60.5215 49.7229 60.264 49.346 59.9155 49.062C59.567 48.7779 59.1276 48.6358 58.5973 48.6358C58.0632 48.6358 57.62 48.7779 57.2678 49.062C56.9193 49.346 56.6598 49.7229 56.4893 50.1926C56.3227 50.6585 56.2393 51.1699 56.2393 51.7267C56.2393 52.2873 56.3227 52.8006 56.4893 53.2665C56.6598 53.7324 56.9193 54.1055 57.2678 54.3858C57.62 54.6661 58.0632 54.8063 58.5973 54.8063ZM71.7251 47.329L68.5604 56.0563H66.7422L63.5717 47.329H65.3956L67.6058 54.0449H67.6967L69.9013 47.329H71.7251ZM76.7862 56.2324C75.9264 56.2324 75.1858 56.0487 74.5646 55.6813C73.9472 55.3101 73.4699 54.7892 73.1328 54.1188C72.7995 53.4445 72.6328 52.6548 72.6328 51.7495C72.6328 50.8555 72.7995 50.0676 73.1328 49.3858C73.4699 48.704 73.9396 48.1718 74.5419 47.7892C75.148 47.4067 75.8563 47.2154 76.6669 47.2154C77.1593 47.2154 77.6366 47.2968 78.0987 47.4597C78.5608 47.6226 78.9756 47.8782 79.343 48.2267C79.7105 48.5752 80.0002 49.0279 80.2124 49.5847C80.4245 50.1377 80.5305 50.8101 80.5305 51.6017V52.204H73.593V50.9313H78.8658C78.8658 50.4843 78.7749 50.0885 78.593 49.7438C78.4112 49.3953 78.1555 49.1207 77.826 48.9199C77.5002 48.7192 77.1177 48.6188 76.6783 48.6188C76.201 48.6188 75.7843 48.7362 75.4283 48.971C75.076 49.2021 74.8033 49.5051 74.6101 49.8801C74.4207 50.2513 74.326 50.6548 74.326 51.0904V52.0847C74.326 52.668 74.4283 53.1642 74.6328 53.5733C74.8411 53.9824 75.1309 54.2949 75.5021 54.5108C75.8733 54.7229 76.3071 54.829 76.8033 54.829C77.1252 54.829 77.4188 54.7835 77.6839 54.6926C77.9491 54.5979 78.1783 54.4578 78.3714 54.2722C78.5646 54.0866 78.7124 53.8574 78.8146 53.5847L80.4226 53.8745C80.2938 54.3479 80.0627 54.7627 79.7294 55.1188C79.3999 55.471 78.9851 55.7457 78.4851 55.9426C77.9889 56.1358 77.4226 56.2324 76.7862 56.2324ZM82.4155 56.0563V47.329H84.0575V48.7154H84.1484C84.3075 48.2457 84.5878 47.8763 84.9893 47.6074C85.3946 47.3347 85.853 47.1983 86.3643 47.1983C86.4704 47.1983 86.5954 47.2021 86.7393 47.2097C86.8871 47.2173 87.0026 47.2267 87.0859 47.2381V48.8631C87.0178 48.8442 86.8965 48.8233 86.7223 48.8006C86.5481 48.7741 86.3738 48.7608 86.1996 48.7608C85.7981 48.7608 85.4401 48.846 85.1257 49.0165C84.8151 49.1832 84.5689 49.4161 84.3871 49.7154C84.2053 50.0108 84.1143 50.3479 84.1143 50.7267V56.0563H82.4155Z" fill="#282D46"/>
<circle cx="186" cy="50.0563" r="50" fill="#3DDC91" fill-opacity="0.25"/>
<path d="M166.155 56.0563H162.388V44.4199H166.274C167.414 44.4199 168.393 44.6529 169.212 45.1188C170.03 45.5809 170.657 46.2457 171.092 47.1131C171.532 47.9767 171.751 49.0127 171.751 50.221C171.751 51.4332 171.53 52.4748 171.087 53.346C170.647 54.2173 170.011 54.8877 169.178 55.3574C168.344 55.8233 167.337 56.0563 166.155 56.0563ZM164.143 54.5222H166.058C166.945 54.5222 167.681 54.3555 168.268 54.0222C168.856 53.6851 169.295 53.1983 169.587 52.562C169.878 51.9218 170.024 51.1415 170.024 50.221C170.024 49.3082 169.878 48.5335 169.587 47.8972C169.299 47.2608 168.869 46.7779 168.297 46.4483C167.725 46.1188 167.015 45.954 166.166 45.954H164.143V54.5222ZM177.56 56.2324C176.7 56.2324 175.959 56.0487 175.338 55.6813C174.721 55.3101 174.243 54.7892 173.906 54.1188C173.573 53.4445 173.406 52.6548 173.406 51.7495C173.406 50.8555 173.573 50.0676 173.906 49.3858C174.243 48.704 174.713 48.1718 175.315 47.7892C175.921 47.4067 176.63 47.2154 177.44 47.2154C177.933 47.2154 178.41 47.2968 178.872 47.4597C179.334 47.6226 179.749 47.8782 180.116 48.2267C180.484 48.5752 180.774 49.0279 180.986 49.5847C181.198 50.1377 181.304 50.8101 181.304 51.6017V52.204H174.366V50.9313H179.639C179.639 50.4843 179.548 50.0885 179.366 49.7438C179.185 49.3953 178.929 49.1207 178.599 48.9199C178.274 48.7192 177.891 48.6188 177.452 48.6188C176.974 48.6188 176.558 48.7362 176.202 48.971C175.849 49.2021 175.577 49.5051 175.384 49.8801C175.194 50.2513 175.099 50.6548 175.099 51.0904V52.0847C175.099 52.668 175.202 53.1642 175.406 53.5733C175.615 53.9824 175.904 54.2949 176.276 54.5108C176.647 54.7229 177.08 54.829 177.577 54.829C177.899 54.829 178.192 54.7835 178.457 54.6926C178.723 54.5979 178.952 54.4578 179.145 54.2722C179.338 54.0866 179.486 53.8574 179.588 53.5847L181.196 53.8745C181.067 54.3479 180.836 54.7627 180.503 55.1188C180.173 55.471 179.759 55.7457 179.259 55.9426C178.762 56.1358 178.196 56.2324 177.56 56.2324ZM187.342 47.329V48.6926H182.411V47.329H187.342ZM183.763 56.0563V46.3176C183.763 45.7722 183.882 45.3195 184.121 44.9597C184.359 44.596 184.676 44.3252 185.07 44.1472C185.464 43.9654 185.892 43.8745 186.354 43.8745C186.695 43.8745 186.986 43.9029 187.229 43.9597C187.471 44.0127 187.651 44.062 187.768 44.1074L187.371 45.4824C187.291 45.4597 187.189 45.4332 187.064 45.4029C186.939 45.3688 186.787 45.3517 186.609 45.3517C186.196 45.3517 185.901 45.454 185.723 45.6585C185.549 45.8631 185.462 46.1585 185.462 46.5449V56.0563H183.763ZM189.095 56.0563V47.329H190.794V56.0563H189.095ZM189.953 45.9824C189.658 45.9824 189.404 45.8839 189.192 45.687C188.983 45.4862 188.879 45.2476 188.879 44.971C188.879 44.6907 188.983 44.4521 189.192 44.2551C189.404 44.0544 189.658 43.954 189.953 43.954C190.249 43.954 190.5 44.0544 190.709 44.2551C190.921 44.4521 191.027 44.6907 191.027 44.971C191.027 45.2476 190.921 45.4862 190.709 45.687C190.5 45.8839 190.249 45.9824 189.953 45.9824ZM194.778 50.8745V56.0563H193.08V47.329H194.71V48.7495H194.818C195.019 48.2873 195.333 47.9161 195.761 47.6358C196.193 47.3555 196.737 47.2154 197.392 47.2154C197.987 47.2154 198.508 47.3404 198.955 47.5904C199.402 47.8366 199.748 48.204 199.994 48.6926C200.241 49.1813 200.364 49.7854 200.364 50.5051V56.0563H198.665V50.7097C198.665 50.0771 198.5 49.5828 198.17 49.2267C197.841 48.8669 197.388 48.687 196.812 48.687C196.419 48.687 196.068 48.7722 195.761 48.9426C195.458 49.1131 195.218 49.3631 195.04 49.6926C194.866 50.0184 194.778 50.4123 194.778 50.8745ZM206.403 56.2324C205.544 56.2324 204.803 56.0487 204.182 55.6813C203.564 55.3101 203.087 54.7892 202.75 54.1188C202.417 53.4445 202.25 52.6548 202.25 51.7495C202.25 50.8555 202.417 50.0676 202.75 49.3858C203.087 48.704 203.557 48.1718 204.159 47.7892C204.765 47.4067 205.473 47.2154 206.284 47.2154C206.777 47.2154 207.254 47.2968 207.716 47.4597C208.178 47.6226 208.593 47.8782 208.96 48.2267C209.328 48.5752 209.617 49.0279 209.83 49.5847C210.042 50.1377 210.148 50.8101 210.148 51.6017V52.204H203.21V50.9313H208.483C208.483 50.4843 208.392 50.0885 208.21 49.7438C208.028 49.3953 207.773 49.1207 207.443 48.9199C207.117 48.7192 206.735 48.6188 206.295 48.6188C205.818 48.6188 205.402 48.7362 205.045 48.971C204.693 49.2021 204.42 49.5051 204.227 49.8801C204.038 50.2513 203.943 50.6548 203.943 51.0904V52.0847C203.943 52.668 204.045 53.1642 204.25 53.5733C204.458 53.9824 204.748 54.2949 205.119 54.5108C205.491 54.7229 205.924 54.829 206.42 54.829C206.742 54.829 207.036 54.7835 207.301 54.6926C207.566 54.5979 207.795 54.4578 207.989 54.2722C208.182 54.0866 208.33 53.8574 208.432 53.5847L210.04 53.8745C209.911 54.3479 209.68 54.7627 209.347 55.1188C209.017 55.471 208.602 55.7457 208.102 55.9426C207.606 56.1358 207.04 56.2324 206.403 56.2324Z" fill="#282D46"/>
<circle cx="318" cy="50.0563" r="50" fill="#3DDC91" fill-opacity="0.25"/>
<path d="M296.995 44.4199V56.0563H295.239V44.4199H296.995ZM302.683 56.2267C301.978 56.2267 301.349 56.0468 300.796 55.687C300.247 55.3233 299.815 54.8063 299.501 54.1358C299.19 53.4616 299.035 52.6529 299.035 51.7097C299.035 50.7665 299.192 49.9597 299.506 49.2892C299.825 48.6188 300.26 48.1055 300.813 47.7495C301.366 47.3934 301.993 47.2154 302.694 47.2154C303.236 47.2154 303.671 47.3063 304.001 47.4881C304.334 47.6661 304.592 47.8745 304.773 48.1131C304.959 48.3517 305.103 48.562 305.205 48.7438H305.308V44.4199H307.006V56.0563H305.347V54.6983H305.205C305.103 54.8839 304.955 55.096 304.762 55.3347C304.573 55.5733 304.311 55.7817 303.978 55.9597C303.645 56.1377 303.213 56.2267 302.683 56.2267ZM303.058 54.7779C303.546 54.7779 303.959 54.6491 304.296 54.3915C304.637 54.1301 304.895 53.7684 305.069 53.3063C305.247 52.8442 305.336 52.3063 305.336 51.6926C305.336 51.0866 305.249 50.5563 305.075 50.1017C304.9 49.6472 304.645 49.293 304.308 49.0392C303.97 48.7854 303.554 48.6585 303.058 48.6585C302.546 48.6585 302.12 48.7911 301.779 49.0563C301.438 49.3214 301.181 49.6832 301.006 50.1415C300.836 50.5998 300.751 51.1169 300.751 51.6926C300.751 52.276 300.838 52.8006 301.012 53.2665C301.186 53.7324 301.444 54.1017 301.785 54.3745C302.129 54.6434 302.554 54.7779 303.058 54.7779ZM313.192 56.2324C312.333 56.2324 311.592 56.0487 310.971 55.6813C310.353 55.3101 309.876 54.7892 309.539 54.1188C309.206 53.4445 309.039 52.6548 309.039 51.7495C309.039 50.8555 309.206 50.0676 309.539 49.3858C309.876 48.704 310.346 48.1718 310.948 47.7892C311.554 47.4067 312.263 47.2154 313.073 47.2154C313.566 47.2154 314.043 47.2968 314.505 47.4597C314.967 47.6226 315.382 47.8782 315.749 48.2267C316.117 48.5752 316.406 49.0279 316.619 49.5847C316.831 50.1377 316.937 50.8101 316.937 51.6017V52.204H309.999V50.9313H315.272C315.272 50.4843 315.181 50.0885 314.999 49.7438C314.817 49.3953 314.562 49.1207 314.232 48.9199C313.906 48.7192 313.524 48.6188 313.085 48.6188C312.607 48.6188 312.191 48.7362 311.835 48.971C311.482 49.2021 311.21 49.5051 311.016 49.8801C310.827 50.2513 310.732 50.6548 310.732 51.0904V52.0847C310.732 52.668 310.835 53.1642 311.039 53.5733C311.247 53.9824 311.537 54.2949 311.908 54.5108C312.28 54.7229 312.713 54.829 313.21 54.829C313.531 54.829 313.825 54.7835 314.09 54.6926C314.355 54.5979 314.585 54.4578 314.778 54.2722C314.971 54.0866 315.119 53.8574 315.221 53.5847L316.829 53.8745C316.7 54.3479 316.469 54.7627 316.136 55.1188C315.806 55.471 315.391 55.7457 314.891 55.9426C314.395 56.1358 313.829 56.2324 313.192 56.2324ZM321.362 56.2495C320.808 56.2495 320.308 56.1472 319.862 55.9426C319.415 55.7343 319.06 55.4332 318.799 55.0392C318.541 54.6453 318.413 54.1623 318.413 53.5904C318.413 53.0979 318.507 52.6926 318.697 52.3745C318.886 52.0563 319.142 51.8044 319.464 51.6188C319.786 51.4332 320.146 51.293 320.543 51.1983C320.941 51.1036 321.346 51.0317 321.759 50.9824C322.282 50.9218 322.706 50.8726 323.032 50.8347C323.358 50.793 323.594 50.7267 323.742 50.6358C323.89 50.5449 323.964 50.3972 323.964 50.1926V50.1529C323.964 49.6567 323.824 49.2722 323.543 48.9995C323.267 48.7267 322.854 48.5904 322.305 48.5904C321.733 48.5904 321.282 48.7173 320.952 48.971C320.627 49.221 320.401 49.4995 320.276 49.8063L318.68 49.4426C318.869 48.9123 319.146 48.4843 319.509 48.1585C319.877 47.829 320.299 47.5904 320.776 47.4426C321.254 47.2911 321.755 47.2154 322.282 47.2154C322.63 47.2154 323 47.257 323.39 47.3404C323.784 47.4199 324.151 47.5676 324.492 47.7835C324.837 47.9995 325.119 48.3082 325.339 48.7097C325.558 49.1074 325.668 49.6245 325.668 50.2608V56.0563H324.009V54.8631H323.941C323.831 55.0828 323.666 55.2987 323.447 55.5108C323.227 55.7229 322.945 55.8991 322.6 56.0392C322.255 56.1794 321.843 56.2495 321.362 56.2495ZM321.731 54.8858C322.201 54.8858 322.602 54.793 322.935 54.6074C323.272 54.4218 323.528 54.1794 323.702 53.8801C323.88 53.5771 323.969 53.2532 323.969 52.9085V51.7835C323.909 51.8442 323.791 51.901 323.617 51.954C323.447 52.0032 323.252 52.0468 323.032 52.0847C322.812 52.1188 322.598 52.151 322.39 52.1813C322.182 52.2078 322.007 52.2305 321.867 52.2495C321.538 52.2911 321.237 52.3612 320.964 52.4597C320.695 52.5582 320.479 52.7002 320.316 52.8858C320.157 53.0676 320.077 53.3101 320.077 53.6131C320.077 54.0335 320.233 54.3517 320.543 54.5676C320.854 54.7798 321.25 54.8858 321.731 54.8858ZM332.005 47.329V48.6926H327.238V47.329H332.005ZM328.516 45.2381H330.215V53.4938C330.215 53.8233 330.264 54.0714 330.363 54.2381C330.461 54.401 330.588 54.5127 330.744 54.5733C330.903 54.6301 331.075 54.6585 331.261 54.6585C331.397 54.6585 331.516 54.6491 331.619 54.6301C331.721 54.6112 331.8 54.596 331.857 54.5847L332.164 55.9881C332.066 56.026 331.925 56.0639 331.744 56.1017C331.562 56.1434 331.335 56.1661 331.062 56.1699C330.615 56.1775 330.198 56.0979 329.812 55.9313C329.425 55.7646 329.113 55.507 328.874 55.1585C328.636 54.8101 328.516 54.3726 328.516 53.846V45.2381ZM337.552 56.2324C336.692 56.2324 335.951 56.0487 335.33 55.6813C334.713 55.3101 334.236 54.7892 333.898 54.1188C333.565 53.4445 333.398 52.6548 333.398 51.7495C333.398 50.8555 333.565 50.0676 333.898 49.3858C334.236 48.704 334.705 48.1718 335.308 47.7892C335.914 47.4067 336.622 47.2154 337.433 47.2154C337.925 47.2154 338.402 47.2968 338.864 47.4597C339.326 47.6226 339.741 47.8782 340.109 48.2267C340.476 48.5752 340.766 49.0279 340.978 49.5847C341.19 50.1377 341.296 50.8101 341.296 51.6017V52.204H334.359V50.9313H339.631C339.631 50.4843 339.54 50.0885 339.359 49.7438C339.177 49.3953 338.921 49.1207 338.592 48.9199C338.266 48.7192 337.883 48.6188 337.444 48.6188C336.967 48.6188 336.55 48.7362 336.194 48.971C335.842 49.2021 335.569 49.5051 335.376 49.8801C335.186 50.2513 335.092 50.6548 335.092 51.0904V52.0847C335.092 52.668 335.194 53.1642 335.398 53.5733C335.607 53.9824 335.897 54.2949 336.268 54.5108C336.639 54.7229 337.073 54.829 337.569 54.829C337.891 54.829 338.184 54.7835 338.45 54.6926C338.715 54.5979 338.944 54.4578 339.137 54.2722C339.33 54.0866 339.478 53.8574 339.58 53.5847L341.188 53.8745C341.059 54.3479 340.828 54.7627 340.495 55.1188C340.165 55.471 339.751 55.7457 339.251 55.9426C338.754 56.1358 338.188 56.2324 337.552 56.2324Z" fill="#282D46"/>
<circle cx="450" cy="50.0563" r="50" fill="#3DDC91" fill-opacity="0.25"/>
<path d="M427.06 56.056V44.4197H431.207C432.109 44.4197 432.857 44.575 433.452 44.8856C434.05 45.1962 434.497 45.6261 434.793 46.1753C435.088 46.7208 435.236 47.3515 435.236 48.0674C435.236 48.7795 435.086 49.4064 434.787 49.9481C434.491 50.486 434.045 50.9045 433.446 51.2038C432.851 51.503 432.103 51.6526 431.202 51.6526H428.06V50.1413H431.043C431.611 50.1413 432.073 50.0598 432.429 49.8969C432.789 49.7341 433.052 49.4973 433.219 49.1867C433.385 48.8761 433.469 48.503 433.469 48.0674C433.469 47.628 433.384 47.2473 433.213 46.9253C433.046 46.6034 432.783 46.3572 432.423 46.1867C432.067 46.0125 431.599 45.9253 431.02 45.9253H428.815V56.056H427.06ZM432.804 50.806L435.679 56.056H433.679L430.861 50.806H432.804ZM440.888 56.2322C440.028 56.2322 439.287 56.0485 438.666 55.681C438.049 55.3098 437.571 54.789 437.234 54.1185C436.901 53.4443 436.734 52.6545 436.734 51.7492C436.734 50.8553 436.901 50.0674 437.234 49.3856C437.571 48.7038 438.041 48.1716 438.643 47.789C439.25 47.4064 439.958 47.2151 440.768 47.2151C441.261 47.2151 441.738 47.2966 442.2 47.4594C442.662 47.6223 443.077 47.878 443.445 48.2265C443.812 48.575 444.102 49.0276 444.314 49.5844C444.526 50.1375 444.632 50.8098 444.632 51.6015V52.2038H437.695V50.931H442.967C442.967 50.4841 442.876 50.0882 442.695 49.7435C442.513 49.395 442.257 49.1204 441.928 48.9197C441.602 48.7189 441.219 48.6185 440.78 48.6185C440.303 48.6185 439.886 48.736 439.53 48.9708C439.178 49.2019 438.905 49.5049 438.712 49.8799C438.522 50.2511 438.428 50.6545 438.428 51.0901V52.0844C438.428 52.6678 438.53 53.164 438.734 53.5731C438.943 53.9822 439.232 54.2947 439.604 54.5106C439.975 54.7227 440.409 54.8288 440.905 54.8288C441.227 54.8288 441.52 54.7833 441.786 54.6924C442.051 54.5977 442.28 54.4575 442.473 54.2719C442.666 54.0863 442.814 53.8572 442.916 53.5844L444.524 53.8742C444.395 54.3477 444.164 54.7625 443.831 55.1185C443.501 55.4708 443.087 55.7454 442.587 55.9424C442.09 56.1356 441.524 56.2322 440.888 56.2322ZM450.67 47.3288V48.6924H445.739V47.3288H450.67ZM447.091 56.056V46.3174C447.091 45.7719 447.21 45.3193 447.449 44.9594C447.688 44.5958 448.004 44.325 448.398 44.1469C448.792 43.9651 449.22 43.8742 449.682 43.8742C450.023 43.8742 450.314 43.9026 450.557 43.9594C450.799 44.0125 450.979 44.0617 451.097 44.1072L450.699 45.4822C450.619 45.4594 450.517 45.4329 450.392 45.4026C450.267 45.3685 450.116 45.3515 449.938 45.3515C449.525 45.3515 449.229 45.4538 449.051 45.6583C448.877 45.8628 448.79 46.1583 448.79 46.5447V56.056H447.091ZM452.423 56.056V47.3288H454.122V56.056H452.423ZM453.281 45.9822C452.986 45.9822 452.732 45.8837 452.52 45.6867C452.312 45.486 452.207 45.2473 452.207 44.9708C452.207 44.6905 452.312 44.4519 452.52 44.2549C452.732 44.0541 452.986 43.9538 453.281 43.9538C453.577 43.9538 453.829 44.0541 454.037 44.2549C454.249 44.4519 454.355 44.6905 454.355 44.9708C454.355 45.2473 454.249 45.486 454.037 45.6867C453.829 45.8837 453.577 45.9822 453.281 45.9822ZM458.107 50.8742V56.056H456.408V47.3288H458.038V48.7492H458.146C458.347 48.2871 458.661 47.9159 459.089 47.6356C459.521 47.3553 460.065 47.2151 460.72 47.2151C461.315 47.2151 461.836 47.3401 462.283 47.5901C462.73 47.8363 463.076 48.2038 463.322 48.6924C463.569 49.181 463.692 49.7852 463.692 50.5049V56.056H461.993V50.7094C461.993 50.0769 461.828 49.5825 461.499 49.2265C461.169 48.8666 460.716 48.6867 460.141 48.6867C459.747 48.6867 459.396 48.7719 459.089 48.9424C458.786 49.1128 458.546 49.3628 458.368 49.6924C458.194 50.0182 458.107 50.4121 458.107 50.8742ZM469.732 56.2322C468.872 56.2322 468.131 56.0485 467.51 55.681C466.893 55.3098 466.415 54.789 466.078 54.1185C465.745 53.4443 465.578 52.6545 465.578 51.7492C465.578 50.8553 465.745 50.0674 466.078 49.3856C466.415 48.7038 466.885 48.1716 467.487 47.789C468.093 47.4064 468.802 47.2151 469.612 47.2151C470.105 47.2151 470.582 47.2966 471.044 47.4594C471.506 47.6223 471.921 47.878 472.288 48.2265C472.656 48.575 472.946 49.0276 473.158 49.5844C473.37 50.1375 473.476 50.8098 473.476 51.6015V52.2038H466.538V50.931H471.811C471.811 50.4841 471.72 50.0882 471.538 49.7435C471.357 49.395 471.101 49.1204 470.771 48.9197C470.446 48.7189 470.063 48.6185 469.624 48.6185C469.146 48.6185 468.73 48.736 468.374 48.9708C468.021 49.2019 467.749 49.5049 467.555 49.8799C467.366 50.2511 467.271 50.6545 467.271 51.0901V52.0844C467.271 52.6678 467.374 53.164 467.578 53.5731C467.786 53.9822 468.076 54.2947 468.447 54.5106C468.819 54.7227 469.252 54.8288 469.749 54.8288C470.071 54.8288 470.364 54.7833 470.629 54.6924C470.894 54.5977 471.124 54.4575 471.317 54.2719C471.51 54.0863 471.658 53.8572 471.76 53.5844L473.368 53.8742C473.239 54.3477 473.008 54.7625 472.675 55.1185C472.345 55.4708 471.93 55.7454 471.43 55.9424C470.934 56.1356 470.368 56.2322 469.732 56.2322Z" fill="#282D46"/>
<circle cx="582" cy="50.0563" r="50" fill="#3DDC91" fill-opacity="0.25"/>
<path d="M560.444 56.0563H556.677V44.4199H560.563C561.703 44.4199 562.683 44.6529 563.501 45.1188C564.319 45.5809 564.946 46.2457 565.381 47.1131C565.821 47.9767 566.04 49.0127 566.04 50.221C566.04 51.4332 565.819 52.4748 565.376 53.346C564.936 54.2173 564.3 54.8877 563.467 55.3574C562.633 55.8233 561.626 56.0563 560.444 56.0563ZM558.433 54.5222H560.347C561.234 54.5222 561.97 54.3555 562.558 54.0222C563.145 53.6851 563.584 53.1983 563.876 52.562C564.167 51.9218 564.313 51.1415 564.313 50.221C564.313 49.3082 564.167 48.5335 563.876 47.8972C563.588 47.2608 563.158 46.7779 562.586 46.4483C562.014 46.1188 561.304 45.954 560.455 45.954H558.433V54.5222ZM571.849 56.2324C570.989 56.2324 570.248 56.0487 569.627 55.6813C569.01 55.3101 568.532 54.7892 568.195 54.1188C567.862 53.4445 567.695 52.6548 567.695 51.7495C567.695 50.8555 567.862 50.0676 568.195 49.3858C568.532 48.704 569.002 48.1718 569.604 47.7892C570.21 47.4067 570.919 47.2154 571.729 47.2154C572.222 47.2154 572.699 47.2968 573.161 47.4597C573.623 47.6226 574.038 47.8782 574.406 48.2267C574.773 48.5752 575.063 49.0279 575.275 49.5847C575.487 50.1377 575.593 50.8101 575.593 51.6017V52.204H568.656V50.9313H573.928C573.928 50.4843 573.837 50.0885 573.656 49.7438C573.474 49.3953 573.218 49.1207 572.888 48.9199C572.563 48.7192 572.18 48.6188 571.741 48.6188C571.263 48.6188 570.847 48.7362 570.491 48.971C570.138 49.2021 569.866 49.5051 569.673 49.8801C569.483 50.2513 569.388 50.6548 569.388 51.0904V52.0847C569.388 52.668 569.491 53.1642 569.695 53.5733C569.904 53.9824 570.193 54.2949 570.565 54.5108C570.936 54.7229 571.37 54.829 571.866 54.829C572.188 54.829 572.481 54.7835 572.746 54.6926C573.012 54.5979 573.241 54.4578 573.434 54.2722C573.627 54.0866 573.775 53.8574 573.877 53.5847L575.485 53.8745C575.356 54.3479 575.125 54.7627 574.792 55.1188C574.462 55.471 574.048 55.7457 573.548 55.9426C573.051 56.1358 572.485 56.2324 571.849 56.2324ZM579.177 44.4199V56.0563H577.478V44.4199H579.177ZM581.462 56.0563V47.329H583.161V56.0563H581.462ZM582.32 45.9824C582.025 45.9824 581.771 45.8839 581.559 45.687C581.351 45.4862 581.246 45.2476 581.246 44.971C581.246 44.6907 581.351 44.4521 581.559 44.2551C581.771 44.0544 582.025 43.954 582.32 43.954C582.616 43.954 582.868 44.0544 583.076 44.2551C583.288 44.4521 583.394 44.6907 583.394 44.971C583.394 45.2476 583.288 45.4862 583.076 45.687C582.868 45.8839 582.616 45.9824 582.32 45.9824ZM592.913 47.329L589.748 56.0563H587.93L584.759 47.329H586.583L588.793 54.0449H588.884L591.089 47.329H592.913ZM597.974 56.2324C597.114 56.2324 596.373 56.0487 595.752 55.6813C595.135 55.3101 594.657 54.7892 594.32 54.1188C593.987 53.4445 593.82 52.6548 593.82 51.7495C593.82 50.8555 593.987 50.0676 594.32 49.3858C594.657 48.704 595.127 48.1718 595.729 47.7892C596.335 47.4067 597.044 47.2154 597.854 47.2154C598.347 47.2154 598.824 47.2968 599.286 47.4597C599.748 47.6226 600.163 47.8782 600.531 48.2267C600.898 48.5752 601.188 49.0279 601.4 49.5847C601.612 50.1377 601.718 50.8101 601.718 51.6017V52.204H594.781V50.9313H600.053C600.053 50.4843 599.962 50.0885 599.781 49.7438C599.599 49.3953 599.343 49.1207 599.013 48.9199C598.688 48.7192 598.305 48.6188 597.866 48.6188C597.388 48.6188 596.972 48.7362 596.616 48.971C596.263 49.2021 595.991 49.5051 595.798 49.8801C595.608 50.2513 595.513 50.6548 595.513 51.0904V52.0847C595.513 52.668 595.616 53.1642 595.82 53.5733C596.029 53.9824 596.318 54.2949 596.69 54.5108C597.061 54.7229 597.495 54.829 597.991 54.829C598.313 54.829 598.606 54.7835 598.871 54.6926C599.137 54.5979 599.366 54.4578 599.559 54.2722C599.752 54.0866 599.9 53.8574 600.002 53.5847L601.61 53.8745C601.481 54.3479 601.25 54.7627 600.917 55.1188C600.587 55.471 600.173 55.7457 599.673 55.9426C599.176 56.1358 598.61 56.2324 597.974 56.2324ZM603.603 56.0563V47.329H605.245V48.7154H605.336C605.495 48.2457 605.775 47.8763 606.177 47.6074C606.582 47.3347 607.04 47.1983 607.552 47.1983C607.658 47.1983 607.783 47.2021 607.927 47.2097C608.075 47.2173 608.19 47.2267 608.273 47.2381V48.8631C608.205 48.8442 608.084 48.8233 607.91 48.8006C607.736 48.7741 607.561 48.7608 607.387 48.7608C606.986 48.7608 606.628 48.846 606.313 49.0165C606.003 49.1832 605.756 49.4161 605.575 49.7154C605.393 50.0108 605.302 50.3479 605.302 50.7267V56.0563H603.603Z" fill="#282D46"/>
<circle cx="714" cy="50.0563" r="50" fill="#3DDC91" fill-opacity="0.25"/>
<path d="M698.165 45.9313V44.4199H707.171V45.9313H703.54V56.0563H701.79V45.9313H698.165ZM711.521 56.2324C710.661 56.2324 709.92 56.0487 709.299 55.6813C708.682 55.3101 708.204 54.7892 707.867 54.1188C707.534 53.4445 707.367 52.6548 707.367 51.7495C707.367 50.8555 707.534 50.0676 707.867 49.3858C708.204 48.704 708.674 48.1718 709.276 47.7892C709.882 47.4067 710.591 47.2154 711.401 47.2154C711.894 47.2154 712.371 47.2968 712.833 47.4597C713.295 47.6226 713.71 47.8782 714.077 48.2267C714.445 48.5752 714.735 49.0279 714.947 49.5847C715.159 50.1377 715.265 50.8101 715.265 51.6017V52.204H708.327V50.9313H713.6C713.6 50.4843 713.509 50.0885 713.327 49.7438C713.146 49.3953 712.89 49.1207 712.56 48.9199C712.235 48.7192 711.852 48.6188 711.413 48.6188C710.935 48.6188 710.519 48.7362 710.163 48.971C709.81 49.2021 709.538 49.5051 709.344 49.8801C709.155 50.2513 709.06 50.6548 709.06 51.0904V52.0847C709.06 52.668 709.163 53.1642 709.367 53.5733C709.576 53.9824 709.865 54.2949 710.237 54.5108C710.608 54.7229 711.041 54.829 711.538 54.829C711.86 54.829 712.153 54.7835 712.418 54.6926C712.683 54.5979 712.913 54.4578 713.106 54.2722C713.299 54.0866 713.447 53.8574 713.549 53.5847L715.157 53.8745C715.028 54.3479 714.797 54.7627 714.464 55.1188C714.134 55.471 713.719 55.7457 713.219 55.9426C712.723 56.1358 712.157 56.2324 711.521 56.2324ZM723.69 49.4597L722.15 49.7324C722.085 49.5354 721.983 49.3479 721.843 49.1699C721.707 48.9919 721.521 48.846 721.286 48.7324C721.051 48.6188 720.758 48.562 720.406 48.562C719.924 48.562 719.523 48.6699 719.201 48.8858C718.879 49.0979 718.718 49.3726 718.718 49.7097C718.718 50.0014 718.826 50.2362 719.042 50.4142C719.258 50.5923 719.606 50.7381 720.087 50.8517L721.474 51.1699C722.277 51.3555 722.875 51.6415 723.269 52.0279C723.663 52.4142 723.86 52.9161 723.86 53.5335C723.86 54.0563 723.709 54.5222 723.406 54.9313C723.106 55.3366 722.688 55.6548 722.15 55.8858C721.616 56.1169 720.996 56.2324 720.292 56.2324C719.315 56.2324 718.517 56.0241 717.9 55.6074C717.282 55.187 716.904 54.5904 716.763 53.8176L718.406 53.5676C718.508 53.9957 718.718 54.3195 719.036 54.5392C719.354 54.7551 719.769 54.8631 720.281 54.8631C720.837 54.8631 721.282 54.7476 721.616 54.5165C721.949 54.2817 722.116 53.9957 722.116 53.6585C722.116 53.3858 722.013 53.1567 721.809 52.971C721.608 52.7854 721.299 52.6453 720.883 52.5506L719.406 52.2267C718.591 52.0411 717.989 51.7457 717.599 51.3404C717.212 50.9351 717.019 50.4218 717.019 49.8006C717.019 49.2854 717.163 48.8347 717.451 48.4483C717.739 48.062 718.137 47.7608 718.644 47.5449C719.152 47.3252 719.733 47.2154 720.388 47.2154C721.332 47.2154 722.074 47.4199 722.616 47.829C723.157 48.2343 723.515 48.7779 723.69 49.4597ZM729.802 47.329V48.6926H725.035V47.329H729.802ZM726.313 45.2381H728.012V53.4938C728.012 53.8233 728.061 54.0714 728.16 54.2381C728.258 54.401 728.385 54.5127 728.54 54.5733C728.7 54.6301 728.872 54.6585 729.058 54.6585C729.194 54.6585 729.313 54.6491 729.415 54.6301C729.518 54.6112 729.597 54.596 729.654 54.5847L729.961 55.9881C729.862 56.026 729.722 56.0639 729.54 56.1017C729.359 56.1434 729.131 56.1661 728.859 56.1699C728.412 56.1775 727.995 56.0979 727.609 55.9313C727.222 55.7646 726.91 55.507 726.671 55.1585C726.433 54.8101 726.313 54.3726 726.313 53.846V45.2381Z" fill="#282D46"/>
</svg>
